<?xml version="1.0" encoding="utf-8"?>
<!DOCTYPE svg PUBLIC "-//W3C//DTD SVG 1.0//EN" "http://www.w3.org/TR/2001/REC-SVG-20010904/DTD/svg10.dtd">
<svg version="1.0" xmlns="http://www.w3.org/2000/svg" width="750px" height="750px" viewBox="0 0 750 750" preserveAspectRatio="xMidYMid meet">
   <defs>
      <linearGradient id="lg0" gradientUnits="userSpaceOnUse" x1="49.866665%" y1="19.333334%" x2="49.866665%" y2="92.4%">
         <stop offset="0%" style="stop-color:rgb(173,147,163);"></stop>
         <stop offset="65%" style="stop-color:rgb(154,138,169);"></stop>
         <stop offset="100%" style="stop-color:rgb(119,128,169);"></stop>
      </linearGradient>
   </defs>
 <g fill="#132835">
  <path d="M382.3 719.4 c-0.4 -0.2 -9.6 -0.5 -20.3 -0.7 -13.8 -0.4 -22.7 -1.1 -30.5 -2.6 -21 -4 -44.8 -11.4 -59.3 -18.5 -4 -2 -7.5 -3.6 -7.9 -3.6 -0.8 0 -11.7 -5.2 -12.3 -6 -0.5 -0.5 -3.1 -2.1 -7.5 -4.4 -4.2 -2.3 -14.8 -9.8 -16.5 -11.6 -0.3 -0.3 -2.1 -1.7 -4 -3 -1.9 -1.3 -3.9 -2.9 -4.5 -3.5 -3.5 -3.7 -3.5 -4.2 -3.5 -84.4 l0 -79 -2.6 -2 c-2.3 -1.8 -4.1 -2.1 -12.5 -2.1 l-9.8 0 -1.6 -3 c-0.8 -1.6 -1.5 -5.1 -1.5 -7.9 0 -2.7 -0.4 -5.2 -0.9 -5.5 -1.1 -0.7 -1.6 -16.6 -1.2 -37.3 0.4 -18.2 1.3 -17.1 -16.2 -19.8 -6.5 -1 -12.2 -2.4 -12.7 -3 -0.6 -0.7 -0.6 -2.4 0 -4.6 0.6 -1.8 1 -4.8 1 -6.6 0 -1.8 0.4 -4.2 0.9 -5.5 0.5 -1.3 1.4 -5 2.1 -8.3 0.6 -3.3 1.6 -6.8 2.1 -7.7 0.5 -1 0.9 -2.9 0.9 -4.2 0 -1.4 0.5 -2.8 1 -3.1 0.6 -0.3 1 -1.7 1 -3 0 -1.3 0.5 -2.7 1 -3 0.6 -0.3 1 -1.7 1 -3 0 -1.3 0.4 -2.7 1 -3 0.5 -0.3 1 -1.5 1 -2.6 0 -1 0.4 -2.7 0.9 -3.7 0.5 -0.9 1.3 -2.8 1.9 -4.2 0.5 -1.4 3.5 -7.8 6.6 -14.3 7.7 -15.9 7.7 -15.9 -6 -22.1 -5.8 -2.6 -12.6 -5.5 -15 -6.3 -3.1 -1 -4.4 -2 -4.4 -3.3 0 -1.9 12.3 -26.6 15.7 -31.7 1 -1.6 2.5 -4 3.2 -5.5 0.8 -1.5 2.2 -3.6 3.2 -4.7 2.9 -3.1 5.9 -8.9 5.9 -11.5 0 -1.2 -2.7 -7.6 -6 -14.1 -3.3 -6.5 -6 -12.2 -6 -12.7 0 -0.4 -0.9 -2.7 -1.9 -5.1 -1.1 -2.3 -2.5 -6 -3.2 -8.2 -0.6 -2.2 -1.5 -4.9 -2 -6 -0.8 -2.1 -1.7 -5.8 -2.5 -11 -0.3 -1.6 -0.9 -3.9 -1.4 -5 -1.7 -4 -2.5 -15.5 -2.4 -35 0.1 -20.2 0.9 -31.3 2.4 -35 0.9 -2.1 1.8 -5.9 2.7 -11.3 0.3 -1.8 0.9 -3.5 1.4 -3.8 0.5 -0.3 0.9 -1.4 0.9 -2.5 0 -1 0.4 -2.7 0.9 -3.7 1.7 -3.1 5.1 -11.2 5.1 -11.9 0 -1.5 8.5 -17.8 10.2 -19.7 1 -1.1 1.8 -2.5 1.8 -3.1 0 -0.7 0.9 -2 2 -3 1.1 -1 2 -2.2 2 -2.7 0 -0.7 3.2 -4.7 6.8 -8.4 0.6 -0.7 1.2 -1.5 1.2 -1.8 0 -1 12.3 -13 17 -16.6 2.5 -1.9 4.7 -3.7 5 -4 1.3 -1.3 5.2 -3 6.9 -3 1.1 0 2.3 -0.4 2.6 -1 0.9 -1.4 9.3 -1.2 13.5 0.3 4.3 1.4 8.2 3.9 10.9 6.8 4.7 5.1 5 6.8 5.5 39.4 0.4 23.1 1 32.7 2.1 37.5 0.9 3.6 1.8 8.4 2.2 10.8 0.3 2.3 1 4.5 1.4 4.8 0.5 0.3 0.9 1.4 0.9 2.4 0 1.3 0.9 2.2 2.7 2.6 2.3 0.6 3.2 0.1 7 -4.2 2.3 -2.7 4.3 -5.4 4.3 -5.9 0 -2.5 20.8 -19.5 23.8 -19.5 0.4 0 1.7 -0.8 2.8 -1.8 1.7 -1.6 16.2 -9 22.4 -11.4 1.4 -0.6 3.3 -1.4 4.2 -1.9 1 -0.5 2.5 -0.9 3.5 -0.9 1.6 0 6.6 -1.4 10.8 -3.1 1.1 -0.4 3.4 -1 5 -1.4 5.8 -1.2 10 -2.3 11.9 -3 1.5 -0.7 1.7 -0.5 1.2 1.1 -0.3 1 -2 7.5 -3.7 14.3 l-3.1 12.4 2.3 1.8 c2.5 1.9 4.4 1.8 9.1 -0.6 1.7 -0.8 3.7 -1.5 4.5 -1.5 0.7 0 1.3 -0.4 1.3 -0.9 0 -0.5 1.2 -1.1 2.8 -1.4 1.5 -0.3 4.5 -1.1 6.7 -1.7 6.9 -2 20.2 -4.7 29 -5.9 3.3 -0.5 6.9 -1.1 8 -1.5 2.6 -0.7 47 -1.3 51.2 -0.6 l3.2 0.5 -5.7 10.2 c-10.1 18 -12.4 21.8 -14.5 23.4 -4.1 3.3 0.1 5.9 9.4 5.9 2.1 0 4.1 -0.4 4.4 -1 0.3 -0.5 4.3 -1 8.7 -1 7.4 0 8.2 -0.2 10.2 -2.5 1.5 -1.7 2.6 -5.1 3.4 -10.3 0.7 -4.2 1.7 -9.9 2.2 -12.7 2 -10.2 2.8 -22.2 2.1 -28.5 -0.8 -7.2 -0.7 -20.3 0.4 -29.5 0.7 -6.4 3.5 -12.8 6.9 -15.8 5.6 -5 20.2 -8.7 22.1 -5.7 0.3 0.6 1.5 1 2.6 1 2.1 0 5.3 1.6 8.3 4.3 1.1 0.9 2.3 1.7 2.8 1.7 0.4 0 2.5 1.6 4.5 3.6 2.1 2 5.2 4.6 6.8 5.9 5.4 4.3 23.7 30 26.2 37 0.7 2.2 2.8 6.5 4.5 9.5 1.7 3 4.4 10 5.9 15.5 1.5 5.5 3.4 12.4 4.3 15.3 3.9 14 4.6 53.4 1.1 69.7 -3.7 17.6 -9.9 35.9 -17 50.3 -6.4 13.2 -7.5 16.5 -5.5 17.7 0.6 0.3 1 1.3 1 2 0 1.3 1.1 3 4.5 6.9 0.6 0.6 2.1 3.1 3.4 5.6 1.3 2.5 4 7 6 10 4.7 7.3 6.1 10 6.1 11.5 0 0.7 0.4 1.5 0.8 1.7 0.4 0.2 2.2 3.2 3.9 6.8 l3.2 6.5 -8.2 3.9 c-4.5 2.1 -11.8 5.3 -16.2 7.1 -4.8 1.9 -8.1 3.8 -8.3 4.8 -0.2 0.8 2.6 7.6 6.1 14.9 7.7 15.9 11.8 27.7 14.8 41.8 1.2 5.8 2.6 11.6 3.1 13 1 2.6 4 22.1 3.5 22.6 -0.2 0.2 -6.3 1.7 -13.7 3.4 -7.3 1.6 -13.6 3.2 -13.9 3.6 -0.3 0.3 -0.6 10.1 -0.7 21.7 0 21.9 -1.6 39.6 -3.9 43.3 -1.6 2.4 -11.3 5.2 -19.5 5.6 l-5.5 0.3 -0.5 80 c-0.3 44 -0.6 80.1 -0.8 80.3 -3 4 -11.7 11.9 -14.7 13.4 -2.2 1.2 -5 3 -6.1 4.2 -3 2.9 -49 25.8 -59.4 29.5 -10.1 3.7 -25.6 7.3 -40 9.5 -10.4 1.6 -28 3.4 -29.7 3z m-1.6 -30.6 c12 -9.2 26.6 -27.9 30.4 -38.7 0.9 -2.6 1.6 -3.1 4.5 -3.1 l3.4 0 0 8.4 c0 9.6 -1.9 20.6 -5 28.5 l-2.1 5.3 3.7 -0.6 c2 -0.4 6.4 -1.6 9.8 -2.6 5.9 -1.9 6.3 -2.2 10.2 -8.7 5.8 -9.5 8.1 -14.3 11.9 -24.7 3.2 -8.9 3.3 -9.1 6.7 -9.4 3.2 -0.3 3.4 -0.1 4.5 4 1.1 4.2 3 17 3.5 23.6 l0.3 3.3 8.2 -4 c11.1 -5.4 21.6 -12.4 29.3 -19.8 l6.5 -6.1 0.3 -70 c0.2 -38.5 0 -70.2 -0.5 -70.5 -0.4 -0.2 -1.9 -0.7 -3.3 -1 -2.1 -0.4 -3.1 0.3 -6.7 5.1 -6.8 9.3 -13 15.7 -20.6 21.5 -10.6 8.1 -16.7 10.9 -22.9 10.5 -5.1 -0.3 -5.2 -0.4 -11.2 -8 -3.4 -4.2 -6.6 -7.7 -7.2 -7.7 -0.6 -0.1 -1.8 0.6 -2.5 1.5 -2.4 2.9 -13.3 9.6 -20.9 12.9 -13.4 5.8 -19.7 6.9 -37.5 6.9 -14.3 0 -17 -0.3 -25.9 -2.7 -11.1 -3.1 -21.2 -8 -29.4 -14.4 -3.1 -2.4 -5.9 -4.3 -6.2 -4.3 -0.4 0 -2 1.9 -3.5 4.3 -6.2 9.5 -9.5 12.7 -12.8 12.7 -11.1 -0.1 -29.5 -13.8 -44.7 -33.2 -4.5 -5.8 -6.4 -6.5 -9.5 -3.6 -0.6 0.6 -1.1 25.7 -1.3 70.2 l-0.3 69.3 6.8 6.4 c7 6.6 18.2 13.9 31 20.3 4 2 7.4 3.6 7.7 3.6 0.2 0 0.7 -3.7 1 -8.2 0.4 -4.6 1.4 -11.6 2.3 -15.6 l1.6 -7.3 3.6 0.3 c3.5 0.3 3.6 0.4 6.2 8.8 3 9.8 6.3 16.6 12.6 26 l4.4 6.7 8.5 2.3 c4.6 1.3 8.7 2.1 8.9 1.8 0.3 -0.3 -0.2 -2.5 -1.1 -4.9 -2.5 -7 -4.4 -18.5 -4.4 -26.5 l0 -7.4 3.3 0 c2.7 0 3.6 0.6 4.7 2.8 3.5 7 11.1 17.2 18.9 25.2 8.3 8.4 16.3 15 18.4 15 0.6 0 3.4 -1.9 6.4 -4.2z m17.3 -185.2 c12 -3.1 23.8 -8.1 31.7 -13.4 8.1 -5.5 12.7 -5.7 16 -0.9 1.2 1.7 4.9 6.1 8.1 9.7 l5.9 6.4 7 -7.1 c8.1 -8.2 14.4 -17.5 18.9 -27.7 3 -6.7 3.3 -7.1 6.7 -7.4 2.6 -0.2 4.8 0.6 9 3.2 7.3 4.7 16.2 7.5 25.7 8.3 l7.8 0.6 0.9 -5.9 c0.4 -3.2 0.8 -12.4 0.8 -20.4 -0.1 -15 -2 -25.5 -7.5 -41.6 -1.1 -3.2 -2 -7.4 -2 -9.6 0 -3.5 0.2 -3.8 2.9 -3.8 1.7 0 4.5 0.9 6.3 1.9 3.7 2.2 17.7 6.1 21.9 6.1 l2.6 0 -1.8 -7.2 c-5.8 -23.7 -10.7 -36.3 -23.6 -61.7 -5.8 -11.2 -7.3 -15.1 -7.1 -17.9 0.3 -3.4 0.4 -3.5 7.3 -5.4 14.1 -3.8 22.2 -6.5 24.3 -8.3 0.7 -0.6 -7.8 -14.9 -17.3 -29.5 -14.9 -22.7 -31.9 -40.6 -63.1 -66.2 l-8 -6.7 -6.8 7.9 c-16.6 19.4 -40.7 35.3 -62.2 41.1 -12.2 3.3 -40.4 3.8 -53.6 1 -18.3 -3.8 -31.2 -10.7 -44.3 -23.7 -9.1 -9 -13.5 -15.3 -13.5 -19.3 0 -2.9 0.3 -3.1 3.4 -3.1 2.2 0 5.1 1.1 8 3 7.8 5.3 23.1 12 33.3 14.6 39.3 10 80.2 -4.2 109 -38.1 7.2 -8.5 15.7 -20.4 15.1 -21.1 -0.3 -0.3 -5.4 0.2 -11.4 1.1 -21.3 3.2 -46.7 8.7 -69.6 15.1 -8.6 2.4 -16.8 4.4 -18.2 4.4 -2.3 0 -2.6 -0.4 -2.6 -3.4 0 -3.9 2.3 -6 18.5 -17.1 14.8 -10.2 39.2 -28.4 45.4 -33.9 l5.4 -4.8 -7.4 0.7 c-23.4 2.2 -42.3 7.1 -61.3 15.9 -14.2 6.5 -28.4 17.4 -36.2 27.6 -3.2 4.2 -4.3 5 -7.1 5 -2.8 0 -3.3 -0.3 -3.3 -2.5 0 -8.5 5.7 -38.3 9 -46.9 0.5 -1.4 0.8 -2.6 0.5 -2.6 -0.2 0 -2.8 1.4 -5.7 3.1 -19.9 11.7 -31.4 24.6 -37.2 42.1 -2.9 8.5 -3.4 14.1 -2.2 23.9 l0.8 6.6 -8.3 6.4 c-24.9 18.9 -43.7 37.8 -60.1 60.4 -13.8 19 -24.8 38.4 -22.5 39.6 1.5 0.9 24.1 7.5 28.5 8.4 5.1 1 4.5 5.4 -2.7 18.9 -10.6 19.9 -24.1 55.3 -25.7 67.4 -0.6 4.8 -0.5 5.2 1.4 5.2 2.8 0 15.9 -4.3 21 -6.9 2.3 -1.2 5.5 -2.1 7.2 -2.1 2.7 0 3 0.3 3 3.3 0 1.9 -1.1 6.5 -2.4 10.5 -5.2 15.3 -6.1 21.4 -6.1 42.7 0 11 0.4 21.3 0.8 22.9 l0.8 2.9 7.2 -0.6 c8.2 -0.6 18.4 -4.1 27 -9.2 3.2 -1.9 7.1 -3.5 8.6 -3.5 2.5 0 3.1 0.8 6.5 8.3 4.1 9.1 13.6 22.4 21.6 30.2 l5.2 5 5.4 -6 c3.1 -3.3 6.7 -7.9 8.1 -10.2 3.2 -5.5 6.6 -5.7 13.4 -0.8 10.6 7.6 26.2 14 41.4 17 10.4 2.1 29.5 1.2 41.5 -1.9z m-203.9 -301.1 c1 -3.8 2.3 -11.2 2.9 -16.5 3.8 -33.6 7.1 -51.8 9.7 -53.7 0.9 -0.7 3.6 -1.3 6 -1.3 5.4 0 5.8 0.7 8.2 15.2 2.1 12.1 7.5 31 11.3 39.5 l2.3 5.1 6 -5.3 6 -5.3 -1.1 -3.9 c-13.1 -45.2 -15.9 -61.5 -17.2 -98.8 l-0.7 -20 -8.3 8.4 c-9.7 9.8 -17.4 21 -23.6 34.2 -5.7 11.9 -8 19.2 -11.2 33.6 -5.3 24.8 -4.3 45.3 3.8 73.2 2.4 8.3 2.5 8.3 5.9 -4.4z m370.4 -26 c4.2 -30.7 -5.3 -67.8 -24.8 -96.3 -5.1 -7.4 -18.7 -22.2 -20.5 -22.2 -0.6 0 -1.2 10 -1.5 24.7 -0.3 19.1 -0.9 27.4 -2.5 36.3 -2.7 14.8 -8.4 38.8 -12.3 51.5 l-3.1 9.9 2.3 1.9 c1.3 1 4.3 3.6 6.5 5.7 l4.2 3.9 3.6 -9.5 c6.3 -16.5 11.6 -36.6 11.6 -44.3 0 -5.9 1.6 -7.3 8 -6.9 5.2 0.3 5.5 0.4 6.6 3.8 0.7 1.9 2.9 13 4.9 24.5 3.2 18.1 8.2 40.6 10.2 45.5 0.9 2.2 5 -14.8 6.8 -28.5z"/>
  <path d="M258.2 622.5 c-5.2 -4.4 -6.2 -9.4 -6.2 -32.2 l0 -20.3 3.5 0 c3.4 0 3.5 0.1 3.5 3.9 0 5.7 3.4 15.7 7.5 22.4 2 3.1 3.9 5.7 4.1 5.7 1.6 0 9.1 -4.7 13.8 -8.5 4 -3.2 6.5 -4.5 8.7 -4.5 l3.2 0 -0.6 6.3 c-0.7 8.9 -4.6 16.4 -11.6 23 -6.3 5.7 -8.8 6.7 -17.6 6.7 -4.2 0 -6 -0.5 -8.3 -2.5z"/>
  <path d="M471.6 623.5 c-5 -1.8 -10.4 -6.2 -13.7 -11.1 -3.6 -5.4 -6.9 -14.8 -6.9 -19.5 0 -3.7 0.2 -3.9 3 -3.9 1.9 0 4.7 1.3 7.6 3.5 2.5 1.9 6.6 4.7 9 6.1 l4.5 2.7 2.3 -2.2 c3.9 -3.6 7.6 -11.5 10.1 -21.3 l2.3 -9.3 3.4 -0.3 3.5 -0.3 1.1 7 c1.5 8.9 1.5 25.4 0.1 32.3 -1.6 7.6 -5.4 14.5 -8.9 16.3 -3.6 1.9 -12.2 1.9 -17.4 0z"/>
  <path d="M325.9 428.6 c-17.7 -4.7 -29.7 -22.8 -27.4 -41.2 0.9 -7.7 4.4 -11.4 10.7 -11.4 6.1 0 8.5 2 9.3 7.8 0.4 2.6 1.1 6.1 1.6 7.8 1.1 3.5 7.9 10.4 12.8 12.9 7.3 3.7 17.5 1.4 25.4 -5.5 l3.7 -3.2 0 -9.2 0 -9.1 -3.9 -2.9 c-2.2 -1.6 -4.7 -4.3 -5.7 -6.1 l-1.8 -3.4 -6.6 0.6 c-8.9 0.8 -13.3 -0.8 -17.1 -5.9 -2.6 -3.7 -2.9 -4.9 -2.9 -11.5 0 -7.9 0.7 -10.2 4.9 -14.6 4.6 -5 7 -5.7 20.3 -5.7 13.2 0 14.5 0.4 21.2 6.4 l2.9 2.6 3.9 -3.6 c5.5 -4.9 7.4 -5.4 20.7 -5.4 14.5 0 19.3 1.9 22.9 9 3.1 6.1 3.1 15.9 -0.1 21.4 -3.5 6.1 -7.6 7.8 -17.4 7.3 -6.7 -0.4 -8.3 -0.2 -8.3 0.9 0 0.8 -2.5 3.9 -5.5 6.9 -5.1 5.2 -5.5 5.9 -5.5 10.3 0 9.7 0.9 12.1 6.1 16.2 2.7 2.1 7.1 4.6 9.9 5.5 4.8 1.6 5.4 1.6 10.8 -0.1 10 -3.2 18.2 -13.4 18.2 -22.8 0 -6.5 9.9 -9.1 15.7 -4.2 2.7 2.4 2.8 2.6 2.8 13.3 0 10 -0.2 11.2 -2.9 16.6 -3.8 7.4 -10.9 14 -19.4 18 -6.5 3.1 -7.1 3.2 -20.2 3.2 -11.7 -0.1 -14.3 -0.4 -19.4 -2.4 -3.2 -1.3 -7.2 -3.6 -8.9 -5.1 l-3.1 -2.7 -4.3 3.3 c-6.7 5.1 -15.5 7.4 -28.2 7.3 -5.8 0 -12.7 -0.6 -15.2 -1.3z"/>
  <path d="M264 353.4 c-12.4 -3.3 -21.4 -12.7 -24.8 -25.9 -1.7 -7 -1.7 -7 -4.2 -5.8 -4.1 2.1 -10.6 1.6 -13 -0.9 -3.1 -3.3 -2.8 -13.9 0.6 -21.5 3.8 -8.7 12.6 -19.6 19.6 -24.3 8.9 -5.9 15.1 -7.5 28.8 -7.5 13.7 0.1 19.3 1.7 27.7 7.9 11.6 8.5 17.3 21.1 17.3 38.1 0 12.6 -3.2 22.2 -10 29.9 -8.7 9.8 -26.6 14.1 -42 10z m20.9 -37.4 c4.3 -2.1 7.8 -6.1 8.7 -9.6 1.4 -5.7 -8.4 -15.4 -14.1 -14 -3.4 0.9 -7.4 4.4 -9.5 8.5 -1.8 3.6 -1.8 3.9 -0.1 7.7 2.3 5 6.2 8.3 10.9 9.3 0.1 0.1 2 -0.8 4.1 -1.9z"/>
  <path d="M459.2 353.9 c-10.4 -2 -19.6 -9.9 -25.4 -21.7 -5.6 -11.3 -5.1 -27.5 1.2 -40.7 4.1 -8.5 11.4 -15.6 20.5 -20 6.6 -3.2 8.6 -3.7 17.7 -4.2 17.1 -0.9 26.5 2.5 38.6 14.1 4.7 4.5 7.4 8.3 10.8 15.1 4.3 8.4 4.6 9.4 4.2 15.7 -0.5 8.8 -2.2 10.8 -9.3 10.8 -3.8 0 -6 -0.6 -7.9 -2.1 l-2.6 -2 0 4.5 c0 5.5 -2.7 13.1 -6.5 18.1 -8.2 10.7 -24.8 15.7 -41.3 12.4z m23.1 -37.3 c4.4 -1.8 9.7 -8 9.7 -11.4 0 -5.5 -7.2 -13.2 -12.4 -13.2 -5.5 0 -13.5 9.4 -12.2 14.5 0.8 3.1 4.4 7.4 8 9.6 3.7 2.3 3 2.2 6.9 0.5z"/>
  <path d="M241 263 c-2.8 -2.8 -2.7 -11.1 0.3 -17 3.6 -7.3 7 -8.4 26.5 -8.8 17.7 -0.4 20.8 0.2 24.2 4.6 1.5 1.8 2 4 2 8.3 0 8.2 -1.8 9.9 -10.4 9.9 -3.6 0 -6.8 -0.4 -7.1 -1 -0.3 -0.5 -3.9 -1 -7.9 -1 -7.2 0 -7.4 0.1 -10 3.5 -2.6 3.4 -3 3.5 -9.2 3.5 -5.1 0 -6.8 -0.4 -8.4 -2z"/>
  <path d="M487.8 261.4 l-3.3 -3.5 -7.5 0.6 c-22.7 1.8 -24 1.3 -24 -9.5 0 -5.9 0.3 -6.9 2.6 -9.1 2.5 -2.3 3.1 -2.4 20.2 -2.7 16.8 -0.3 17.9 -0.2 22.2 2 6.6 3.4 9 7.6 9 15.8 0 8.7 -1.3 10 -9.8 10 -5.8 0 -6.3 -0.2 -9.4 -3.6z"/>
 </g>
 <g fill="#878ab1">
  <path fill="url(#lg0)" d="M368 694.3 c-7.3 -4.7 -22.3 -20.1 -28.2 -28.9 -2.7 -3.9 -4.8 -7.5 -4.8 -8 0 -0.5 -0.8 -1.8 -1.7 -2.9 -1.4 -1.9 -1.5 -1.4 -0.9 6 0.7 9.8 2.7 18 6.7 26.4 1.6 3.5 2.7 6.6 2.4 6.9 -0.6 0.6 -8.5 -1 -19.7 -4 l-7.7 -2.1 -4.5 -6.7 c-6.2 -9.3 -9.9 -17.2 -12.6 -26.3 -1.3 -4.3 -2.6 -8 -3 -8.2 -1.3 -0.8 -4 13.7 -4.4 23 -0.2 5.2 -0.9 9.1 -1.5 9.3 -2.9 1 -33.1 -15.6 -40.8 -22.4 l-3.8 -3.3 3.1 -0.1 c2.8 0 3.3 -0.4 3.8 -3.5 0.6 -3.2 1 -3.5 4.1 -3.5 2.5 0 3.5 0.5 4 2.1 1.5 4.6 13.1 14.9 16.9 14.9 2.7 0 7.5 -6.3 11.3 -14.7 3.6 -8 3.8 -8.3 7 -8.3 1.9 0 3.5 0.6 3.7 1.3 3.5 14.2 15.4 30.9 30.1 42.4 5.7 4.5 7.1 5.2 7.3 3.8 0.2 -1 -0.1 -2.1 -0.7 -2.4 -1.9 -1.2 -5.1 -16.3 -5.8 -27.3 l-0.6 -10.8 3.5 0 c2.8 0 3.7 0.5 4.6 2.5 0.7 1.4 1.2 3.2 1.2 4 0 0.8 0.5 1.5 1 1.5 0.6 0 1.6 1.2 2.3 2.8 0.6 1.5 1.4 2.9 1.7 3.2 0.3 0.3 1.5 1.7 2.6 3.2 2.6 3.3 13.2 10.7 21.4 14.8 l6.1 3.1 4 -3.3 c13.1 -10.6 22.6 -20.1 32.4 -32.6 3.5 -4.5 4.5 -5.1 7.8 -5.2 l3.7 0 0 8.5 c0 7.8 -0.2 8.5 -2 8.5 -1.7 0 -2 -0.7 -2 -4.2 l0 -4.2 -4 7.9 c-5.7 11 -11.5 18.8 -20.2 27.1 -7.3 6.9 -15.8 13.5 -17.5 13.3 -0.4 0 -3.3 -1.6 -6.3 -3.6z"/>
  <path fill="url(#lg0)" d="M406 693.6 c0 -0.3 1.6 -4.5 3.6 -9.3 2.7 -6.8 6.4 -20.4 6.4 -23.9 0 -0.2 0.7 -0.4 1.6 -0.4 1.5 0 1.6 0.9 1 6.7 -0.4 3.7 -1.8 10.1 -3.2 14.1 -1.4 4.1 -2.4 7.5 -2.2 7.8 0.5 0.4 4.6 -2.9 12.1 -9.6 9.1 -8.1 22.6 -28.1 24.2 -35.7 0.6 -3 1 -3.3 4.6 -3.3 2.8 0 3.9 0.4 3.9 1.5 0 3.3 10.8 21.5 12.8 21.5 3.5 0 13.3 -10.3 14.6 -15.2 0.6 -2.6 0.4 -2.8 -2.2 -2.8 -4.5 0 -12.8 -4.8 -17.7 -10.2 -8.7 -9.6 -15.5 -27.4 -15.5 -40.1 l0 -6.5 -4.5 0.6 -4.5 0.5 -3.4 -7.3 -3.5 -7.2 -1.1 4.4 c-2.7 10.3 -7.3 22.8 -11 29.4 -7 12.6 -20.5 25.4 -26.9 25.4 -2.9 0 -3.1 -0.3 -3.1 -3.4 0 -1.8 0.5 -5.8 1 -8.7 0.6 -3 0.8 -8.1 0.4 -11.4 l-0.6 -5.9 -3.1 3.9 c-1.7 2.2 -5.3 6.1 -8 8.8 -7.7 7.4 -12.2 6.3 -21.3 -5.3 -2.6 -3.3 -5.1 -6 -5.6 -6 -1 0 -0.5 15.7 0.8 23.8 l0.6 4.2 -3.5 0 c-7.3 0 -21.7 -13.9 -29.3 -28.2 -4 -7.7 -8.8 -21.2 -9.9 -27.6 -0.9 -5.3 -1.7 -4.6 -4.3 3.3 -1.8 5.8 -2 6 -5.6 6.3 -3 0.3 -5.2 -0.6 -12.4 -5.2 -16.5 -10.4 -35.5 -32.9 -46.3 -54.9 -1.3 -2.7 -2.7 -5.1 -3.1 -5.3 -0.4 -0.3 -0.8 4.7 -0.8 11 0 10.9 -0.1 11.6 -2 11.6 -1.9 0 -2 -0.6 -1.9 -19.7 0.1 -10.9 0.4 -20.9 0.8 -22.2 0.6 -2.3 5.2 -4.8 9.2 -5 0.9 -0.1 3.8 2.7 6.5 6.2 12.5 15.9 26 27.5 37.1 31.7 l5.2 2 3.4 -4.3 c1.8 -2.3 5.3 -7 7.6 -10.4 l4.3 -6.1 7.6 6.1 c10.1 8.1 19.7 13.1 31.8 16.4 8.4 2.3 11.9 2.7 22.9 2.7 9.4 0 14.9 -0.5 20 -1.9 13.9 -3.6 27.3 -10.6 38 -19.8 l3.9 -3.4 3.5 4.6 c7.3 9.7 12.4 15.1 14.3 15.1 3 0 11.7 -4.7 19.5 -10.7 7.8 -5.9 14 -12.4 20.6 -21.6 l4.2 -5.8 5.4 0.5 c3 0.3 5.8 0.9 6.3 1.4 0.5 0.5 0.8 31.4 0.6 73.6 l-0.3 72.8 -6.5 6.1 c-10.2 9.7 -26.1 19.4 -38.7 23.8 l-5.3 1.8 0 -5.2 c0 -5.4 -2.2 -20 -3.8 -25.2 -0.7 -2.1 -1.1 -2.5 -1.5 -1.5 -0.4 0.8 -2 5.2 -3.6 9.7 -3.5 9.6 -5.8 14.3 -11.4 23.5 -4.6 7.5 -4.8 7.6 -21.4 11.8 -8 2 -11.3 2.4 -11.3 1.6z m80 -73.1 c5.7 -3 10 -15.3 10 -28.6 0 -7.3 -1.9 -21.3 -2.8 -20.4 -0.3 0.3 -1.6 4.5 -2.8 9.5 -2.6 10.1 -6.4 18 -10.6 21.5 -2.3 1.9 -3.3 2.2 -6.3 1.5 -3.6 -0.8 -13 -6.4 -17.2 -10.3 -2.9 -2.6 -2.9 -1.4 -0.1 6 4 10.8 10.3 17.9 18.4 20.8 5.1 1.8 7.9 1.8 11.4 0z"/>
  <path fill="url(#lg0)" d="M254.1 641.1 c-6.4 -6.8 -8.5 -21.5 -7.5 -51.3 0.6 -17.5 0.8 -18.8 2.6 -18.8 1.3 0 2 -0.9 2.5 -3 0.5 -2.6 1 -3 4 -3 l3.5 0 -0.4 6.5 c-0.2 3.6 -0.1 6.5 0.3 6.5 0.4 0 1 1.5 1.3 3.3 0.3 1.7 1.7 5.6 3.1 8.5 1.4 3 2.5 6.4 2.5 7.7 0 1.7 0.7 2.4 3.1 2.9 5.2 1 7.9 0.7 7.9 -0.9 0 -0.8 0.7 -1.5 1.5 -1.5 0.8 0 1.5 -0.5 1.5 -1 0 -0.6 0.8 -1.4 1.7 -1.7 0.9 -0.4 3.1 -2.2 4.7 -4 2.6 -2.7 3.8 -3.3 7.3 -3.3 l4.3 0 0 4.3 c0 8.2 -2.9 21 -6.5 28.6 -4.3 9 -9 15 -15.2 19.3 -3.9 2.6 -5.8 3.2 -11.9 3.6 -7.2 0.5 -7.4 0.4 -10.3 -2.7z m17.9 -19.7 c7.5 -1.6 18.6 -15.6 20.6 -26.1 l0.7 -3.5 -5.7 4.6 c-7.4 6 -15.2 9.9 -18.1 9.2 -4.7 -1.2 -12 -16 -13.5 -27.1 -0.6 -4.6 -0.8 -1.8 -0.9 11.6 -0.1 19.8 1 25.1 6.1 29.4 3.1 2.6 5.2 3 10.8 1.9z"/>
  <path fill="url(#lg0)" d="M452.5 503.8 c-3.7 -4 -7.9 -8.9 -9.4 -11 -1.4 -2.1 -3 -3.8 -3.4 -3.8 -0.4 0 -3.6 1.9 -7 4.2 -7.8 5.3 -19.6 10.3 -31.7 13.4 -12 3.1 -32.3 4.3 -43.7 2.5 -16.2 -2.5 -33.7 -9.4 -45.2 -17.7 l-4.9 -3.4 -2.5 4.2 c-3.3 5.6 -14.5 17.8 -16.2 17.8 -2.3 0 -13.3 -10.8 -20 -19.8 -3.5 -4.7 -8.1 -12.3 -10.1 -16.8 l-3.6 -8.2 -5.7 3.4 c-10.2 6.1 -18.5 8.6 -29.8 9.2 -10.1 0.5 -10.2 0.4 -10.7 -1.9 -0.4 -1.3 -0.6 -3.3 -0.5 -4.4 0 -1.1 -0.2 -3.7 -0.6 -5.7 -0.7 -3.4 -0.6 -3.8 1.4 -3.8 1.6 0 2.1 0.6 2.1 2.7 0 2.5 1.2 1.5 12.2 -9.5 10.8 -10.8 12.6 -12.2 15.6 -12.2 l3.4 0 -0.5 4.3 c-0.2 2.3 -1.2 6.2 -2.1 8.6 -0.9 2.4 -1.4 4.6 -1.1 4.9 0.3 0.3 3.6 -0.4 7.3 -1.6 11 -3.5 12 -3.3 17 4.9 4.7 7.4 12.6 16.6 17.1 19.9 l2.8 1.9 -3.3 -9.7 c-4.1 -12.3 -6.3 -23.5 -6.6 -33.7 l-0.3 -8 3.6 -0.3 c3.6 -0.3 3.6 -0.3 4.8 5.1 0.6 3 3.6 10.4 6.6 16.5 4.3 8.6 7.1 12.9 12.8 18.9 26.6 28.8 68 38.6 106.9 25.4 25.5 -8.6 41.8 -22.5 51.8 -44.1 1.2 -2.5 3.2 -6.8 4.5 -9.5 1.4 -2.8 3 -7.4 3.6 -10.3 1.2 -5 1.4 -5.2 4.7 -5.2 l3.5 0 -0.6 10.3 c-0.6 10.3 -4 27.5 -7.6 37.9 l-2 5.8 2.8 -2.1 c3.1 -2.3 13.1 -14.1 17.5 -20.6 2.6 -3.8 3.3 -4.3 6.8 -4.3 2.2 0 6.1 0.7 8.8 1.6 7.2 2.3 8.2 1.8 6.3 -3.1 -0.9 -2.2 -1.8 -5.9 -2 -8.2 l-0.5 -4.3 3.4 0 c2.7 0 4.3 1 8.3 5 2.7 2.8 5.2 5 5.6 5 1.1 0 2.9 -7.6 3.5 -15.1 0.4 -4.1 0.1 -11.4 -0.4 -16.4 -0.6 -4.9 -1.4 -13.6 -1.8 -19.1 -0.6 -9.5 -0.5 -10.3 1.5 -12.3 1.1 -1.1 2.1 -2.8 2.1 -3.7 0 -1.5 0.9 -1.6 6.5 -1 4.3 0.4 6.5 0.3 6.5 -0.4 0 -0.6 -0.9 -5.4 -2 -10.8 -2.5 -11.5 -7.4 -24.6 -15 -39.7 -4.9 -9.7 -5.9 -11.1 -8.7 -11.9 -2.7 -0.7 -3.3 -1.4 -3.3 -3.7 0 -1.8 -0.5 -2.9 -1.4 -2.9 -0.9 0 -1.5 1.9 -2 5.8 -0.7 6.5 -3.4 15.2 -4.6 15.2 -0.4 0 -1 0.9 -1.3 2 -0.4 1.4 -1.4 2 -3.5 2 -2.7 0 -3.1 0.4 -3.4 3.2 -0.2 2.6 -0.9 3.5 -3.3 4.3 -1.6 0.5 -3.6 1.5 -4.3 2.2 -1.7 1.6 -7.8 3.3 -11.9 3.3 -5 0 -4.1 -2.6 1.3 -3.9 12.2 -3.1 21.6 -10.8 25.3 -20.6 2.5 -6.7 2.8 -19.8 0.6 -26 -1.9 -5.1 -1.9 -5.1 0.4 -3.1 1 0.9 3.3 4.8 5 8.6 4.5 9.6 9.4 12.6 13.5 8.1 3.6 -4 3.2 -8.8 -1.8 -18.6 -7.3 -14.6 -19.2 -24.7 -32.9 -28.1 -7.6 -1.9 -9.2 -4.4 -2.9 -4.4 4.5 0 13.6 2.5 15.4 4.3 0.7 0.7 2.5 1.8 4.1 2.4 1.5 0.7 2.7 1.7 2.7 2.3 0 0.5 0.6 1 1.3 1 1.9 0 8.7 7.3 8.7 9.3 0 0.9 0.7 1.7 1.5 1.7 0.8 0 1.5 0.5 1.5 1 0 0.6 0.5 1.6 1 2.3 0.6 0.7 1.6 2 2.3 2.9 1.1 1.7 1.6 1.7 7.7 -0.2 3.5 -1.2 6.6 -2.3 6.8 -2.5 1.2 -1.2 -16.2 -26.5 -25.3 -37 l-3.5 -4 0 4.8 c0 2.6 -0.4 4.7 -1 4.7 -0.5 0 -1 0.9 -1 2 0 2.7 -2.9 4 -8.9 4 -4.4 0 -5.5 -0.4 -8.7 -3.5 -2.8 -2.8 -4.4 -3.5 -7.5 -3.5 -3.2 0 -3.9 -0.3 -3.9 -2 0 -1.8 0.7 -2 5.3 -2 4.9 0 5.7 0.3 8.6 3.5 2.4 2.7 3.9 3.5 6.5 3.5 10.1 0 8.3 -14.3 -2.4 -19.8 -4.2 -2.1 -5.5 -2.3 -19.2 -2 -13.9 0.3 -14.8 0.4 -17.2 2.7 -1.9 1.8 -2.6 3.5 -2.6 6.1 0 6.3 4.9 8.7 13.3 6.5 2.3 -0.6 2.7 -0.4 2.7 1.3 0 2.6 -2.8 4.2 -7.2 4.2 -6 0 -7.8 -1 -7.8 -4.1 0 -3.7 -2.8 -3.9 -7.4 -0.4 -8.2 6.2 -33.3 16.2 -48.5 19.2 -10.3 2.1 -36.4 2.3 -45.6 0.4 -12.4 -2.5 -29.9 -10.5 -38.6 -17.6 -1.3 -1.1 -4.3 -4.2 -6.6 -6.9 -3.4 -3.9 -4.3 -5.7 -4.3 -8.6 0 -2.3 -0.5 -4 -1.4 -4.3 -2.2 -0.9 -12.1 -16.6 -15.5 -24.7 -2 -4.8 -3.1 -9.2 -3.1 -12.2 0 -4.6 0.1 -4.8 2.7 -4.8 1.5 0 6.3 1.8 10.8 4 24.8 12.2 61.3 13.1 92.8 2.2 2.6 -0.9 4.7 -1.9 4.7 -2.2 0 -0.4 -1.8 -1.2 -4 -1.9 -3.6 -1.1 -4 -1.5 -4 -4.6 0 -2.3 0.5 -3.5 1.8 -3.9 12.8 -3.7 17.7 -5.3 26.5 -8.7 10.3 -4.1 31.2 -14.7 35.6 -18.1 l2.4 -1.8 -4.9 0.6 c-16.5 2.1 -52.7 10.1 -76.5 16.9 -6.8 1.9 -13.6 3.5 -15.1 3.5 -2.5 0 -2.8 -0.4 -2.8 -3.3 0 -3.6 1.5 -5.7 4.1 -5.7 0.9 0 1.9 -0.9 2.2 -2 0.3 -1.1 1.4 -2 2.5 -2 1.1 0 2.2 -0.8 2.5 -1.9 0.2 -1 1.8 -2.4 3.6 -3.2 1.7 -0.8 3.1 -1.7 3.1 -2.1 0 -0.5 0.7 -0.8 1.5 -0.8 0.8 0 1.5 -0.5 1.5 -1 0 -0.6 1.2 -1.6 2.7 -2.3 1.5 -0.6 3.8 -2.2 5.2 -3.4 1.3 -1.3 3 -2.3 3.6 -2.3 0.7 0 1.5 -0.7 1.9 -1.5 0.3 -0.8 1.2 -1.5 2.1 -1.5 0.8 0 1.5 -0.4 1.5 -1 0 -0.5 0.6 -1 1.4 -1 0.8 0 1.6 -0.7 2 -1.5 0.3 -0.8 1.2 -1.5 2.1 -1.5 0.8 0 1.5 -0.4 1.5 -1 0 -0.5 0.9 -1 2 -1 1.2 0 2 -0.7 2 -1.6 0 -0.9 0.9 -1.8 1.9 -2.1 1.1 -0.3 2.2 -1.1 2.5 -1.9 0.3 -0.8 1.1 -1.4 1.8 -1.4 0.7 0 1.9 -0.9 2.6 -2 0.7 -1.1 1.7 -2 2.3 -2 0.6 0 2.2 -1.4 3.6 -3 1.3 -1.7 3.3 -3 4.4 -3 1 0 1.9 -0.4 1.9 -1 0 -0.6 -2.7 -1 -6 -1 -4.4 0 -6 -0.4 -6 -1.4 0 -1.9 3.2 -2.6 12.3 -2.6 5.8 0 7.7 0.3 7.7 1.4 0 2.8 -27.9 24.9 -55 43.4 -5.8 4 -12.3 8.8 -14.5 10.6 l-4 3.5 14 -4 c22 -6.2 50.1 -12.3 70.6 -15.3 10.8 -1.6 21.9 -2.1 21.9 -1 0 1.3 -13.6 20.2 -19.3 26.9 -19.2 22.5 -44.8 37 -71.4 40.6 -12.8 1.7 -31.6 0.6 -43.6 -2.5 -10.2 -2.6 -25.6 -9.3 -33.3 -14.6 -2.5 -1.6 -4.7 -3 -5 -3 -1.3 0 6.7 10 13.1 16.4 13.1 13 26 19.9 44.3 23.7 12.7 2.7 35.4 2.2 47.6 -1 21.8 -5.8 45.3 -21.5 63.1 -42.1 4.3 -5 8.1 -9 8.4 -9 1 0 18.4 14.3 31.4 25.9 17.8 15.7 31.5 31.3 43.2 49.1 10 15.3 19.5 31.8 19.5 33.9 0 1.8 -10.6 5.7 -25.5 9.6 -3.8 1 -7.4 2.1 -7.8 2.5 -0.4 0.4 2.5 7.2 6.6 15.1 9.9 19.5 15.3 32.1 18.9 44.2 3.6 12.4 6.5 24.2 7 28.2 l0.3 3 -6 -0.3 c-7.4 -0.3 -20.9 -3.7 -25.2 -6.2 -3.9 -2.3 -3.9 -2.1 -1.3 5.4 1 3.1 3.2 10.5 4.7 16.4 2.5 9.6 2.7 12.4 2.8 28.2 0 9.6 -0.4 20 -0.8 23.1 -1 6.8 -1.7 7.1 -14.5 5.7 -10.6 -1.2 -18.7 -3.8 -26 -8.4 -3 -2 -5.8 -3.2 -6.2 -2.7 -0.4 0.4 -2 3.7 -3.6 7.3 -5.1 11.7 -14.1 23.9 -23.7 32.2 l-5.5 4.8 -6.7 -7.2z"/>
  <path d="M207.5 430.8 c0.8 -7.7 3.7 -20.3 6.4 -28.2 1.2 -3.3 2.1 -6.1 2.1 -6.3 0 -0.2 -1.9 0.6 -4.1 1.8 -6 3 -17.6 6.6 -24.1 7.4 -5.6 0.6 -5.8 0.6 -5.8 -1.7 0.2 -14 13.4 -51.7 27.2 -77.6 3.3 -6.2 5.8 -11.5 5.7 -11.7 -0.2 -0.1 -3.3 -1 -6.9 -1.9 -9.1 -2.3 -25.2 -7.4 -26.9 -8.5 -2.6 -1.7 10 -24.4 24.7 -44.6 16.4 -22.6 35.2 -41.5 60 -60.4 5.4 -4.1 8.1 -6.8 7.8 -7.7 -0.3 -0.9 0.2 -1.4 1.4 -1.4 2.9 0 2.9 7 0 7.7 -1.1 0.3 -2 0.9 -2 1.4 0 0.6 -0.7 1.2 -1.5 1.5 -0.8 0.3 -3.1 2.1 -5.2 4 -2 1.9 -4.2 3.4 -4.8 3.4 -0.5 0 -1.6 0.9 -2.3 2 -0.7 1.1 -2 2 -3 2 -0.9 0 -2.2 1 -2.7 2.3 -0.6 1.3 -2.1 2.3 -3.7 2.5 -1.9 0.2 -2.8 0.9 -2.8 2.1 0 2.8 -8.2 10.1 -11.3 10.1 -2.3 0 -2.7 0.4 -2.7 2.8 0 3.2 -5.5 9.2 -8.3 9.2 -1.1 0 -1.7 0.8 -1.7 2.5 0 1.4 -0.9 3 -2 3.7 -1.1 0.7 -2 1.8 -2 2.5 0 0.6 -1 2 -2.3 3 -1.3 1 -2.6 2.6 -3 3.6 -0.3 0.9 -1.1 1.7 -1.7 1.7 -0.5 0 -1 0.7 -1 1.5 0 0.8 -0.7 1.5 -1.5 1.5 -0.8 0 -1.5 0.9 -1.5 2 0 1.1 -0.7 2 -1.5 2 -0.8 0 -1.5 0.9 -1.5 2 0 1.1 -0.4 2 -1 2 -0.5 0 -1 0.6 -1 1.3 0 1.1 -6.5 11.6 -8 12.7 -0.3 0.3 -1.2 2 -1.9 3.8 -0.8 1.7 -1.7 3.2 -2.2 3.2 -0.5 0 -0.9 0.7 -0.9 1.5 0 0.8 -0.7 1.5 -1.5 1.5 -1 0 -1.5 1 -1.5 3 0 2 -0.5 3 -1.5 3 -6.4 0 10.5 6.5 26.2 10.1 5.3 1.2 6.3 2.4 6.3 7.6 0 3.1 -3.1 9.3 -4.7 9.3 -0.7 0 -1.3 0.9 -1.3 2 0 2.3 -5.8 14.3 -7.1 14.8 -0.5 0.2 -0.9 1.1 -0.9 2.1 0 0.9 -1.5 5.2 -3.3 9.6 -3.5 8.2 -12 32.9 -13.1 37.7 l-0.6 2.7 6.2 -2.9 c7.1 -3.4 15.4 -4.1 16.4 -1.5 0.4 1.1 2.1 1.5 5.5 1.5 4.8 0 4.9 0 4.9 3.1 0 1.7 -1.2 6.4 -2.6 10.3 -3.1 8.6 -6.3 22.7 -6.4 27.9 0 3.1 -0.3 3.7 -2.1 3.7 -2 0 -2.1 -0.4 -1.4 -6.2z"/>
  <path d="M330.5 430 c-6.2 -1.1 -13.5 -3.9 -13.5 -5.1 0 -0.5 -0.7 -0.9 -1.5 -0.9 -0.8 0 -1.5 -0.7 -1.5 -1.5 0 -0.8 -0.8 -1.5 -1.8 -1.5 -2.3 0 -5.2 -3 -5.2 -5.3 0 -0.9 -0.7 -1.7 -1.5 -1.7 -1 0 -1.5 -1.1 -1.5 -3.5 0 -1.9 0.5 -3.5 1 -3.5 0.6 0 1 0.4 1 0.9 0 2.6 10.7 12.3 16.8 15.3 6.4 3.2 7.2 3.3 18.2 3.3 13.5 0 19.9 -2 27.3 -8.5 2.5 -2.2 4.8 -4 5.2 -4 0.4 0 2.7 1.7 5 3.9 6.6 6.1 14 8.5 26.5 8.5 9.8 0.1 11 -0.1 17.2 -3.1 11 -5.2 18.8 -13.7 21.8 -24 1.5 -4.8 4 -5.8 4 -1.7 0 3.4 -2.1 10.4 -3 10.4 -0.5 0 -1.1 1.1 -1.4 2.5 -0.4 1.4 -1.1 2.5 -1.6 2.5 -0.6 0 -1 0.5 -1 1.2 0 1.6 -5.1 6.8 -6.7 6.8 -0.7 0 -1.3 0.4 -1.3 1 0 1.7 -10 6.1 -17.4 7.7 -10.1 2.1 -23.1 0.8 -32.8 -3.4 -2.1 -0.9 -3.8 -2 -3.8 -2.5 0 -0.4 -0.6 -0.8 -1.4 -0.8 -0.7 0 -1.9 -0.6 -2.5 -1.4 -0.9 -1.1 -1.7 -1.1 -3.6 -0.2 -1.4 0.6 -2.5 1.4 -2.5 1.9 0 0.4 -0.6 0.7 -1.4 0.7 -0.8 0 -1.6 0.4 -1.8 1 -0.1 0.5 -3 1.9 -6.3 3.1 -6.8 2.4 -21.1 3.3 -29 1.9z"/>
  <path d="M334.5 409.1 c-4.7 -1.2 -7.7 -3 -12.2 -7.4 -4.5 -4.3 -5.7 -7 -6.8 -15 -1.5 -11.1 -12.2 -9.2 -13.9 2.6 -0.5 3 -0.1 6.2 1.3 10.5 l1.9 6.2 -2.4 0 c-1.9 0 -2.5 -0.8 -3.5 -4.2 -1.4 -5.2 -0.7 -20 0.9 -20.6 0.7 -0.2 1.2 -1 1.2 -1.7 0 -2.2 3.4 -3.5 8.9 -3.5 4.8 0 5.1 0.2 5.1 2.5 0 1.8 0.5 2.5 2 2.5 1.6 0 2 0.7 2 3.8 0 2.1 0.9 5.5 2 7.7 1.1 2.2 2 5 2 6.2 0 1.7 0.6 2.3 2.3 2.3 1.2 0 4.4 1.1 7.1 2.5 2.8 1.4 6.7 2.5 8.8 2.5 4.3 0 13.8 -3.6 15.1 -5.7 0.4 -0.7 1.7 -1.3 2.7 -1.3 1.3 0 2 -0.7 2 -2 0 -1.3 0.7 -2 2 -2 5.6 0 -1.1 8.4 -9.8 12.3 -4.9 2.1 -14.1 3 -18.7 1.8z"/>
  <path d="M395.5 408 c-2.7 -1.1 -7 -3.7 -9.4 -5.8 l-4.4 -3.8 -0.5 -11.1 -0.4 -11 5.5 -5.6 c3.9 -3.9 5.8 -6.6 6.3 -9.1 0.7 -3.9 1.5 -4.4 3.4 -2.1 0.7 0.8 3 2 5.1 2.7 5.7 1.6 5.2 4 -0.8 3.7 -4 -0.3 -4.7 0 -5.4 1.9 -0.5 1.2 -1.2 2.2 -1.8 2.2 -0.5 0 -1.1 0.9 -1.4 2 -0.3 1.1 -1.2 2 -2.1 2 -0.9 0 -1.6 0.5 -1.6 1 0 0.6 -0.7 1 -1.5 1 -1.2 0 -1.5 1.7 -1.5 9.3 0.1 8.7 0.2 9.4 2.9 12.3 1.5 1.7 5.4 4.4 8.5 5.9 5 2.5 6.4 2.7 11.9 2.1 3.4 -0.3 6.4 -1.1 6.5 -1.6 0.2 -0.6 1 -1 1.8 -1 0.8 0 1.4 -0.4 1.4 -1 0 -0.5 1.4 -1 3 -1 2.7 0 3 -0.3 3 -3 0 -1.6 0.4 -3 0.9 -3 0.9 0 2.5 -5.7 3.6 -12.2 0.4 -2.4 1.1 -3.8 2 -3.8 0.8 0 1.5 -0.7 1.5 -1.5 0 -1.1 1.2 -1.5 5.1 -1.5 6 0 8.9 1.3 8.9 4 0 1.1 0.5 2 1 2 0.6 0 1 1.6 1 3.5 0 4.4 -2.6 4.8 -3.5 0.5 -0.7 -3 -4.7 -7 -7.1 -7 -2.3 0 -5.4 3.8 -5.4 6.6 0 5.7 -2.5 10.9 -7.5 15.9 -8.1 8.1 -18.6 10.5 -29 6.5z"/>
  <path d="M361 376.5 c0 -0.9 -0.9 -1.5 -2.1 -1.5 -1.2 0 -2.3 -0.8 -2.6 -2 -0.3 -1.1 -1.1 -2 -1.9 -2 -0.7 0 -1.9 -1.2 -2.7 -2.6 -1.3 -2.4 -1.7 -2.5 -10.7 -2.7 -6.4 -0.1 -9.5 -0.6 -9.8 -1.4 -0.2 -0.7 -1 -1.3 -1.7 -1.3 -1.9 0 -5.2 -5.8 -6 -10.7 -0.8 -4.8 0.2 -12.9 1.9 -14.6 0.6 -0.7 1.6 -2.1 2.2 -3.2 0.6 -1 1.9 -2.3 2.9 -2.9 1.1 -0.6 2.5 -1.7 3.3 -2.3 1.9 -1.8 8.2 -1.7 8.2 0.1 0 0.8 -1.1 1.7 -2.5 2 -3.2 0.8 -9.2 6.1 -11.1 9.7 -3.6 7.1 0 17.5 7.2 20.5 4.5 1.9 7.3 1.8 11.9 -0.6 2.2 -1.1 4 -2 4.1 -2 0.2 0 1.5 2.2 2.9 4.9 1.5 2.7 4.4 6.1 6.6 7.7 4.2 3.2 5.2 6.4 1.9 6.4 -1.1 0 -2 -0.7 -2 -1.5z"/>
  <path d="M263.3 353.9 c-1.8 -0.5 -3.3 -1.6 -3.3 -2.4 0 -0.9 -1 -1.5 -2.6 -1.5 -4.2 0 -6.4 -1.8 -6.4 -5 0 -2.7 -0.3 -3 -3 -3 -2 0 -3 -0.5 -3 -1.5 0 -0.8 -0.4 -1.5 -1 -1.5 -0.5 0 -1 -1.3 -1 -3 0 -2 -0.5 -3 -1.5 -3 -0.9 0 -1.8 -1.9 -2.6 -5.9 l-1.2 -5.9 -3.3 1.4 c-6.7 2.8 -13.4 0.7 -13.4 -4.1 0 -0.8 -0.4 -1.5 -1 -1.5 -0.5 0 -1 -2.2 -1 -4.9 0 -5.2 1.6 -11.1 3.1 -11.1 0.5 0 0.9 -1.1 0.9 -2.4 0 -1.4 0.7 -3.1 1.5 -4 0.8 -0.8 1.5 -1.9 1.5 -2.5 0 -0.6 0.5 -1.1 1 -1.1 0.6 0 1 -0.7 1 -1.5 0 -0.7 0.6 -1.8 1.3 -2.2 0.6 -0.4 1.7 -1.7 2.3 -2.8 0.6 -1.1 2.3 -2.1 3.8 -2.3 2 -0.3 2.6 -0.9 2.6 -2.8 0 -1.4 0.7 -2.7 1.7 -3.1 0.9 -0.4 2.4 -1.4 3.4 -2.4 4.4 -4.4 24.9 -9.1 24.9 -5.6 0 1.1 -1.7 1.9 -5.7 2.7 -12.3 2.5 -20.7 7.9 -28.8 18.5 -9.7 12.6 -12.9 23.5 -8.4 28.4 3.7 4 10.1 0.9 11.9 -5.8 1.1 -4 6.8 -13.6 7.6 -12.8 0.3 0.3 -0.1 1.9 -1 3.5 -0.8 1.6 -1.8 4.8 -2.2 7.1 -0.4 2.3 -1 4.1 -1.5 4.1 -0.5 0 -0.9 1.1 -0.9 2.5 0 1.4 0.4 2.5 0.8 2.5 0.5 0 1.6 2.8 2.6 6.3 3.6 13.2 12.7 22.1 25.9 25.3 4.1 1.1 6.7 2.2 6.7 3 0 1.6 -6.6 1.8 -11.7 0.3z"/>
  <path d="M278 353.6 c0 -0.8 2.5 -1.9 6.5 -2.9 14.5 -3.6 23.3 -12.5 27.5 -27.9 0.8 -3 1.8 -4.8 2.8 -4.8 1.2 0 1.4 1 0.9 5.1 -0.7 5.6 -5.9 17.9 -7.6 17.9 -0.6 0 -1.1 0.5 -1.1 1.1 0 1.6 -2.6 3.9 -4.4 3.9 -0.9 0 -1.6 0.7 -1.6 1.5 0 0.8 -1.1 1.7 -2.5 2.1 -1.4 0.3 -2.5 0.9 -2.5 1.4 0 1.2 -9.9 4 -14.1 4 -2.6 0 -3.9 -0.4 -3.9 -1.4z"/>
  <path d="M274.5 319.6 c-3.8 -1.7 -6 -4.1 -8 -8.9 -2.1 -5 -1.9 -8.5 0.8 -13.2 6.2 -11 21.4 -11.4 27.5 -0.7 2.7 5 2.8 7.2 0.2 7.2 -1.3 0 -2 -0.7 -2 -2 0 -1.1 -0.4 -2 -1 -2 -0.5 0 -1 -0.6 -1 -1.3 0 -1.6 -7 -5.7 -9.8 -5.7 -2.9 0 -9.1 3.2 -9.2 4.8 0 0.6 -0.7 1.2 -1.6 1.2 -1.4 0 -1.6 0.8 -1.1 5.4 0.4 4.6 1.1 6 3.9 8.5 4.4 4.1 6.9 4.6 12.1 2.5 3.2 -1.3 4.8 -2.8 6.2 -5.6 1.1 -2.3 2.5 -3.8 3.7 -3.8 4.5 0 -0.2 9 -6.7 12.7 -4.5 2.5 -9.5 2.9 -14 0.9z"/>
  <path d="M471.9 318.7 c-6.2 -4.2 -10.3 -12.7 -6.1 -12.7 1.2 0 2.6 1.4 3.7 3.8 2.6 5.2 8.3 8.1 12.9 6.4 1.8 -0.7 4.2 -1.2 5.4 -1.2 1.7 0 2.2 -0.6 2.2 -2.5 0 -1.3 0.5 -3.5 1.1 -4.9 0.9 -1.9 0.9 -3.2 -0.1 -5.6 -1.4 -3.4 -7.3 -9 -9.5 -9 -0.8 0 -1.5 -0.9 -1.5 -2 0 -1.4 0.7 -2 2.4 -2 6.8 0 14.4 10.4 13.1 18.1 -1.8 10.8 -15.1 17.3 -23.6 11.6z"/>
  <path d="M311.5 301.9 c-4.1 -16.8 -17.6 -28.6 -35.7 -31.4 -2.6 -0.4 -3.8 -1.1 -3.8 -2.2 0 -1.3 1 -1.5 6.3 -1 6.7 0.5 15 3 15.5 4.7 0.2 0.5 1 1 1.8 1 0.8 0 1.4 0.4 1.4 0.9 0 0.5 0.9 1.1 2 1.4 1.5 0.4 2 1.4 2 3.6 0 2.8 0.3 3.1 3 3.1 1.9 0 3.3 0.6 3.7 1.7 0.4 0.9 1.5 2.5 2.5 3.5 1 1 1.8 2.9 1.8 4.3 0 1.4 0.4 2.5 0.9 2.5 1 0 3.1 8.5 3.1 12.5 0 1.5 -0.6 2.5 -1.4 2.5 -0.9 0 -2 -2.5 -3.1 -7.1z"/>
  <path fill="url(#lg0)" d="M551.1 232 c-0.1 -0.8 0.8 -4.4 1.9 -7.8 2.7 -8.7 2.5 -12.3 -1.4 -27.5 -1.8 -7.3 -5 -22.6 -7.1 -34.2 -4.4 -25.2 -5.2 -27.9 -8.5 -28.3 -3.1 -0.5 -5 2.1 -5 6.9 0 8 -5.5 28.7 -12.1 45.6 -2.2 5.7 -4.4 10.5 -4.8 10.7 -0.4 0.3 -3.2 -1.8 -6.2 -4.5 -3 -2.7 -7.1 -6.2 -9.2 -7.6 -2.1 -1.5 -3.6 -3.2 -3.3 -3.9 5.2 -13.5 14.7 -51.8 17.1 -68.9 0.9 -6 1.8 -12.5 2.1 -14.2 0.7 -4.8 3.4 -4.4 3.4 0.5 0 7.1 -4.5 32.8 -8.6 48.7 -0.5 1.9 -0.5 1.9 0.7 0.1 2.1 -3.4 6.3 -6.4 9.6 -7.1 3.7 -0.7 7.2 -3.7 9 -7.8 1.1 -2.4 1.8 -2.7 5.8 -2.7 7.4 0 8.1 0.7 10.1 11.7 1.1 5.9 2.5 10.4 3.6 11.5 1 1 2 2.9 2.4 4.3 0.6 2.3 1.1 2.5 6 2.5 l5.4 0 0.1 14.3 0.2 14.2 1.3 -7.5 c0.7 -4.1 1.3 -12.8 1.3 -19.2 0.1 -9.4 0.4 -11.8 1.5 -11.8 6.5 0 0.8 44.9 -8.7 69 -3.9 9.8 -6.6 15.2 -6.6 13z"/>
  <path fill="url(#lg0)" d="M193.6 229.8 c-4.8 -7.4 -12.5 -31.5 -14.1 -44.5 -0.6 -4.8 -0.5 -5.3 1.3 -5.3 1.6 0 2.1 1 2.8 5.3 l0.9 5.2 0.3 -7.2 0.3 -7.2 4.2 -1.9 c6.6 -3 9.3 -6.1 10.1 -11.8 1.8 -13.6 4.9 -27.4 6.2 -27.4 0.7 0 1.4 -1 1.6 -2.2 0.3 -2 0.9 -2.3 5.3 -2.3 4.7 0 5 0.1 6.1 3.5 0.7 1.9 1.5 4.7 1.8 6.3 0.5 2.2 1.2 2.7 3.6 2.7 1.6 0 3.2 -0.4 3.5 -1 0.9 -1.4 7.2 -1.2 7.9 0.3 0.3 0.6 0.4 0.3 0.1 -0.8 -3.2 -13.9 -6.4 -34.2 -6.5 -40.7 0 -2.7 0.4 -3.8 1.5 -3.8 1.5 0 1.9 1.9 3 12.5 1.5 13.4 8.4 43.2 14.7 62.7 l3.1 9.7 -3.4 2.8 c-1.8 1.5 -5.7 4.9 -8.6 7.6 -2.9 2.6 -5.7 4.7 -6.1 4.7 -1 0 -7.5 -16.8 -10.7 -27.5 -1.4 -4.9 -3.5 -14.1 -4.5 -20.3 -2.6 -15 -3.9 -17.2 -8.3 -13.9 -2.5 1.8 -7.2 27.5 -9.2 49.7 -0.7 8.3 -3 20.2 -5 26.5 -2.1 6.4 -2.6 10.7 -1.3 9.9 0.7 -0.5 0.9 0.1 0.4 1.9 -0.3 1.4 -0.1 3.8 0.4 5.3 1.4 3.5 0.6 4.2 -1.4 1.2z"/>
  <path d="M272.4 184.5 c-1.5 -8.1 2.9 -25.3 9.1 -35.5 5 -8.1 13.4 -17 21.7 -22.7 11.3 -7.8 23.8 -14.1 23.8 -11.9 0 0.2 -1.1 4.1 -2.4 8.7 -4.6 15.9 -5.9 21.4 -7.6 33.4 -1 6.6 -1.7 12.1 -1.6 12.2 0.1 0.2 1.9 -2 4 -4.7 15.2 -19.9 46.3 -35.8 81.6 -41.6 11.3 -1.8 12 -1.8 12 0.6 0 1.5 -0.7 2 -2.6 2 -4.3 0 -22.1 3.9 -32.3 7.1 -9.2 2.9 -34.2 14.5 -34.9 16.1 -0.2 0.4 -1 0.8 -1.7 0.8 -0.7 0 -1.5 0.7 -1.9 1.5 -0.3 0.9 -1.8 1.5 -3.6 1.5 -2.4 0 -3 0.4 -3 2.2 0 2.4 -7.6 10.8 -9.7 10.8 -0.7 0 -1.3 0.7 -1.3 1.5 0 3.4 -3.1 6.5 -6.6 6.5 -3.4 0 -3.4 0 -3.4 -4.7 0.1 -10.2 4.9 -36.1 8.5 -45.5 0.5 -1.3 0.2 -1.8 -0.9 -1.8 -0.9 0 -1.6 0.3 -1.6 0.8 0 0.4 -2.1 1.9 -4.7 3.2 -2.5 1.4 -5.7 3.5 -7.1 4.8 -1.4 1.2 -2.9 2.2 -3.3 2.2 -0.4 0 -3.1 2.5 -6 5.5 -2.8 3 -5.8 5.5 -6.5 5.5 -0.8 0 -1.4 0.9 -1.4 2 0 1.1 -0.7 2.3 -1.5 2.6 -0.8 0.4 -1.5 1.2 -1.5 2 0 0.8 -0.6 1.4 -1.4 1.4 -0.7 0 -1.6 1.2 -1.9 2.8 -0.3 1.5 -1.9 6.5 -3.6 11.2 -2.4 6.5 -3.1 10.2 -3.1 15.8 0 5.6 -0.3 7.2 -1.5 7.2 -0.8 0 -1.7 -1.4 -2.1 -3.5z"/>
  <path d="M178.4 150.3 c2.5 -31.4 14.8 -61.5 33.9 -83.5 7.1 -8.1 16 -15.3 17.7 -14.3 1.9 1.2 1 4.2 -1.7 5.6 -1.5 0.8 -4.7 3.5 -7.1 6.2 -2.9 3 -5.3 4.7 -6.8 4.7 -2 0 -2.4 0.5 -2.4 3.1 0 2.2 -0.5 3.2 -2 3.6 -1.1 0.3 -2 1.4 -2 2.4 0 1.1 -0.4 1.9 -1 1.9 -0.5 0 -1 0.7 -1 1.5 0 0.8 -0.4 1.5 -1 1.5 -0.5 0 -1 0.6 -1 1.4 0 0.8 -0.6 2.1 -1.2 2.8 -0.7 0.7 -2.9 4.6 -4.8 8.7 -1.9 4.1 -4 7.9 -4.5 8.5 -2.6 2.8 -10.5 34.7 -11.2 45.4 -0.5 8.3 -0.8 9.2 -2.6 9.2 -1.9 0 -1.9 -0.5 -1.3 -8.7z"/>
  <path d="M563.2 140 c-1.6 -10.3 -5.2 -22.7 -9.8 -33.8 -2 -4.8 -3.9 -10.4 -4.1 -12.4 -0.4 -2.9 -1 -3.8 -2.4 -3.8 -1.2 0 -2.1 -0.9 -2.5 -2.5 -0.3 -1.4 -1 -2.5 -1.5 -2.5 -0.5 0 -0.9 -0.7 -0.9 -1.5 0 -0.8 -0.4 -1.5 -1 -1.5 -0.5 0 -1 -0.6 -1 -1.4 0 -0.8 -0.7 -1.6 -1.5 -2 -0.8 -0.3 -1.5 -1.1 -1.5 -1.8 0 -0.7 -0.9 -1.9 -2 -2.6 -1.1 -0.7 -2 -2.3 -2 -3.7 0 -1.8 -0.5 -2.5 -1.9 -2.5 -1 0 -3.5 -1.8 -5.5 -4.1 -2.5 -2.7 -4.8 -4.2 -7.2 -4.6 -3 -0.5 -3.4 -0.9 -3.4 -3.4 0 -2.1 0.5 -2.9 1.8 -2.9 5.1 0 18 12.3 27 25.8 10.4 15.4 18.4 35.3 22.2 55.2 2.5 12.5 2.5 14 0.2 14 -1.4 0 -2 -1.5 -3 -8z"/>
 </g>
 <g fill="#a9b8bf">
  <path d="M335.1 692.5 c-3 -0.8 -6.3 -2.3 -7.5 -3.5 l-2.1 -2.2 4.3 0.4 c3.5 0.3 4.1 0.1 3.6 -1.2 -3.3 -7.7 -6.8 -30 -4.8 -30 0.5 0 0.8 -1.8 0.6 -4 -0.4 -4 -0.4 -4 2.9 -4 3.1 0.1 3.7 0.6 6.8 6 4.1 7.2 11.1 15.9 12.9 15.9 0.7 0.1 1.2 1.4 1.2 3.1 l0 3 -4.5 -2.9 c-5.4 -3.4 -7.4 -5.8 -13.3 -16 l-4.4 -7.6 0.7 8.4 c0.8 10.4 3.4 20.7 7.4 29.4 1.6 3.7 2.7 6.7 2.3 6.6 -0.4 -0.1 -3.1 -0.7 -6.1 -1.4z"/>
  <path d="M248 656.6 c-2.5 -1.8 -6 -4.9 -7.7 -7 l-3.3 -3.7 0 -51.2 c0 -28.2 0.3 -52.2 0.6 -53.4 0.4 -1.3 1.3 -2.3 2 -2.3 1.2 0 1.4 8.5 1.4 52.4 l0 52.4 6.1 5.6 c4.7 4.4 6 6.2 5.7 8.1 l-0.3 2.4 -4.5 -3.3z"/>
  <path d="M267.5 603.8 c-5.4 -4.3 -11.4 -19.8 -11.6 -30.2 l-0.1 -6.1 -1.3 5 -1.3 5 -0.1 -5.2 -0.1 -5.3 3.4 0 3.3 0 0.5 7.8 c0.5 8.3 3.5 16.5 8.4 22.9 l2.5 3.3 5.2 -2.7 c2.9 -1.5 5.6 -3.4 6 -4 0.4 -0.7 1.7 -1.3 2.7 -1.3 1.1 0 2 -0.7 2 -1.5 0 -1.1 1.1 -1.5 3.6 -1.5 l3.5 0 -2.8 2.6 c-5.5 5.2 -13 10.4 -17.1 11.8 -3.8 1.4 -4.3 1.3 -6.7 -0.6z"/>
  <path d="M351.5 507.4 c-20.2 -3.6 -40.3 -14.6 -54.2 -29.7 -5.7 -6 -8.5 -10.3 -12.8 -18.9 -3 -6.1 -6 -13.5 -6.6 -16.4 -1.5 -6.6 -2.7 -6.2 -2.3 0.8 0.3 5.3 0.3 5.3 -0.7 1.6 -0.6 -2.1 -1.5 -3.8 -2 -3.8 -1 0 -1.2 -37.1 -0.3 -40.7 0.5 -1.8 1.4 -2.3 4 -2.3 3.2 0 3.4 0.2 3.4 3.6 0 4 3.1 16.6 5.7 23.5 4.5 11.4 16.7 28.2 26.4 36 12 9.7 27.3 18.1 38.9 21.5 9.8 2.8 32.4 2.6 44.4 -0.4 26.7 -6.7 51 -27 64.4 -53.8 2.9 -5.7 5.4 -16.2 6.8 -27.6 0.5 -4.6 0.6 -4.8 3.8 -4.8 3.2 0 3.4 0.2 4 4.3 0.3 2.3 0.9 10.1 1.2 17.3 0.6 11.7 0.5 14 -1.6 21.5 -1.2 4.6 -2.4 8.6 -2.6 8.8 -0.1 0.2 -0.1 -3 0.2 -7 l0.4 -7.4 -1.8 6.2 c-1.1 3.5 -2.8 8.2 -4 10.5 -1.1 2.4 -3 6.3 -4.2 8.8 -6.2 13.5 -14.3 23.3 -25.6 31 -13.3 9.1 -27.2 14.7 -43.3 17.5 -10.4 1.9 -31 1.8 -41.6 -0.1z"/>
  <path d="M207.4 435.3 c0.9 -10.7 3.6 -23.5 7 -32.8 1.4 -3.8 2.3 -7.1 2.1 -7.3 -0.2 -0.2 -1.3 0.1 -2.4 0.8 -1.6 0.8 -2.1 0.8 -2.1 -0.1 0 -0.8 -0.4 -0.8 -1.5 0.1 -1.2 1 -1.5 0.9 -1.5 -0.7 0 -2.3 3.8 -4.3 8 -4.3 2.9 0 3 0.2 3 4.3 0 2.3 -1.3 8.1 -3 12.7 -3.2 9.4 -6 23.7 -6 31.1 0 4.3 -0.2 4.9 -2.1 4.9 -2.1 0 -2.2 -0.3 -1.5 -8.7z"/>
  <path d="M324.6 429.4 c-10.2 -3.2 -18.6 -10.7 -23.8 -21.1 -2.8 -5.7 -3.1 -7.4 -3.2 -15.6 -0.1 -13.2 3 -17.7 12.4 -17.7 6 0 8.8 3.1 9.8 10.7 1 7 4.1 11.9 10 15.8 8.4 5.5 17.1 4.8 26.5 -2 l4.7 -3.5 0 -8.9 0 -8.9 -3.6 -2.7 c-2 -1.5 -4.4 -4.1 -5.5 -5.8 -1.8 -3.1 -1.9 -3.1 -9.3 -2.8 -7.9 0.3 -13.6 -1.6 -13.6 -4.4 0 -0.8 -0.7 -1.5 -1.6 -1.5 -4.2 0 -5.9 -16 -2.5 -23.6 1 -2.3 3.6 -5.4 5.7 -7 3.6 -2.8 4.3 -2.9 15.7 -3.2 15.3 -0.5 17.5 0 22.9 4.8 l4.5 3.9 2.4 -2.5 c5.7 -6 7.7 -6.6 22.7 -6.2 13.5 0.3 14 0.4 17.7 3.2 5.5 4.2 7.8 10.1 7.3 19.2 -0.4 8.1 -2 11.2 -7.9 15.2 -3 2.1 -4.3 2.3 -11.5 2 -8 -0.3 -8.2 -0.2 -9.7 2.5 -0.9 1.5 -2.3 2.7 -3.2 2.7 -0.8 0 -1.5 0.6 -1.5 1.3 0 1.7 -4.6 5.7 -6.5 5.7 -2.6 0 -1.8 -4.6 1.3 -6.5 4 -2.6 7 -6.6 7.8 -10.2 0.3 -1.8 0.9 -3.3 1.1 -3.3 0.3 0 2.1 1 4 2.1 4.7 2.9 13.2 2.3 16.9 -1.2 4.3 -4 5.7 -7.6 5.2 -13.6 -0.5 -6 -2.6 -9.6 -7.8 -13 -2.9 -2.1 -4.5 -2.3 -14.6 -2.3 l-11.3 0 -6.5 6.1 -6.6 6.1 -2.7 -3.3 c-1.5 -1.7 -4.5 -4.5 -6.7 -6 -3.7 -2.8 -4.4 -2.9 -14.5 -2.9 -9.7 0 -11 0.2 -14.3 2.5 -7.8 5.3 -10.5 15.5 -5.9 22.8 3.9 6.4 13.2 8.6 19.6 4.7 l3.2 -2 1.9 4.1 c1 2.3 4 5.9 6.6 8.2 l4.8 4 0 11.5 0 11.4 -3.2 3.1 c-13.5 12.6 -36.3 9.7 -43.7 -5.6 -1.2 -2.4 -2.1 -5.9 -2.1 -7.9 0 -4.5 -3.3 -8.8 -6.6 -8.8 -5.6 0 -9.6 9 -7.9 17.7 0.8 4.3 4.7 12.4 8.3 17 5.3 7.1 14.6 11.7 27.5 13.8 2.3 0.4 3.7 1.1 3.7 2 0 2 -9.7 1.9 -16.4 -0.1z"/>
  <path d="M343 429.7 c0 -1.1 1.2 -1.8 3.8 -2.2 9.7 -1.6 20.1 -6.4 24.7 -11.5 1.8 -2 1.8 -1.9 5.6 1.5 6.2 5.6 11.9 7.8 25.1 10 4.9 0.8 16.3 -1.7 22.8 -5 6.6 -3.4 13.8 -10.5 17 -17 2.5 -5.2 3.8 -15.1 2.6 -20 -1.5 -5.8 -7.6 -8.4 -11 -4.6 -0.9 1 -2.1 4.4 -2.6 7.5 -1.5 9.3 -6.4 15.4 -15.6 19.2 -5.6 2.3 -14.9 2.2 -20.5 -0.3 -5.8 -2.6 -12.9 -8.9 -12.9 -11.4 0 -3 3.2 -2.3 6.9 1.4 4.5 4.7 11.5 8 16.7 7.9 5.3 0 13.5 -4.3 17.4 -9 2.9 -3.5 5 -9.2 5 -13.6 0 -1.5 1.1 -3.8 2.5 -5.1 1.9 -2 3.4 -2.5 7.5 -2.5 4.3 0 5.3 0.3 5.7 2 0.3 1.1 1.2 2 1.9 2 2.5 0 3.6 5.2 3.2 14.5 -0.3 7.1 -1 10.2 -3.1 14.8 -3.4 7.4 -10.9 14.7 -19.5 18.9 -6.6 3.3 -6.9 3.3 -20.7 3.3 -15.3 0 -20 -1.1 -28.1 -6.6 l-4.2 -2.9 -2.5 2.1 c-5.1 3.9 -13.8 7.2 -20.9 7.7 -5.7 0.4 -6.8 0.2 -6.8 -1.1z"/>
  <path d="M182.4 400.8 c3 -14.7 4.4 -19.9 8.2 -30.5 6.4 -18.2 10.8 -28.4 18 -42.2 6.3 -11.9 7.1 -15.1 4 -15.1 -1.9 0 -25.1 -6.7 -29.4 -8.6 l-3.4 -1.4 5.5 -10.3 c18.2 -34.4 44.3 -65 77.3 -90.4 l11.3 -8.7 -0.6 -4.8 c-0.5 -4.4 -0.4 -4.8 1.6 -4.8 1.9 0 2.1 0.5 2.1 6.8 l0 6.8 -6.7 5 c-18.3 13.4 -38.4 32.6 -52.3 50 -15.7 19.6 -32.5 46.4 -30.3 48.4 1.1 1 11.8 4.5 22.7 7.4 l8.6 2.3 0 -2.3 c0 -2.9 4 -13.4 5.1 -13.4 0.5 0 0.9 -0.7 0.9 -1.5 0 -0.8 0.8 -2.3 1.8 -3.3 1 -1 2.1 -2.6 2.5 -3.5 0.3 -0.9 1.3 -1.7 2.2 -1.7 0.8 0 1.5 -0.9 1.5 -1.9 0 -2.1 7.5 -9.1 9.7 -9.1 0.7 0 1.3 -0.4 1.3 -0.9 0 -1.3 8.8 -4.8 15.8 -6.2 13.1 -2.5 31.2 0.7 37.6 6.6 1.5 1.4 3 2.5 3.5 2.5 1.1 0 6.1 5.4 6.1 6.7 0 0.6 0.7 1.3 1.5 1.7 0.8 0.3 1.5 1.2 1.5 2.1 0 0.8 0.4 1.5 0.9 1.5 0.5 0 2 3 3.2 6.8 2 5.6 2.4 8.8 2.4 19.2 0 12.3 -0.1 12.6 -3.6 20 -4.8 10 -7.5 13 -16.1 17.6 l-7.3 3.9 -12.5 0 c-11.4 0 -13 -0.2 -18.1 -2.6 -3.1 -1.5 -7.4 -4.3 -9.6 -6.3 -4.7 -4.2 -10.1 -13.8 -11.2 -19.8 -0.5 -3.1 -1.2 -4.2 -2.2 -3.9 -0.8 0.3 -3.9 0.7 -7 0.9 -5.2 0.3 -5.8 0.1 -7.8 -2.4 -1.2 -1.5 -2.3 -2.5 -2.5 -2.3 -1.4 1.5 -15.4 30.8 -18.7 39.2 -5 12.5 -10.4 29 -12 36.5 -1 5 -2.9 8.1 -5.2 8.2 -0.4 0 -0.5 -1 -0.3 -2.2z m109.9 -52.3 c7.7 -3.8 13.4 -9.6 17.1 -17.5 2.9 -6 3.1 -7.3 3.1 -17.5 0 -9.1 -0.4 -12.1 -2.3 -17.1 -4.5 -11.7 -17.2 -22.9 -29.1 -25.4 -8.1 -1.7 -20.1 -0.8 -27.4 2 -11.4 4.3 -23.7 17.4 -29.2 31 -3 7.6 -2.9 10.3 0.8 14.6 2.2 2.6 2.3 2.6 6 1 2.1 -0.8 4 -2.3 4.3 -3.3 1.7 -4.9 5.8 -13.4 6.9 -14.3 1 -0.8 0.9 0.1 -0.2 3.2 -2.3 6.5 -1.4 18.8 1.9 25.9 3.4 7.3 8.9 13.4 15.2 16.6 7.7 3.9 9.4 4.3 18.6 4 7 -0.3 9.5 -0.9 14.3 -3.2z"/>
  <path d="M276.6 320 c-3.5 -1.1 -8.4 -5.6 -9.8 -9 -1.6 -4.1 -1.1 -10.8 1.2 -14.5 2.2 -3.6 9.1 -7.5 13.1 -7.5 4 0.1 10.4 3.5 12.9 7 5.7 8.1 2.5 18.8 -6.9 22.9 -5.4 2.3 -6.2 2.4 -10.5 1.1z m9.9 -6 c1.7 -1.1 4 -3.5 5 -5.4 1.6 -2.9 1.7 -3.8 0.5 -6.5 -1.3 -3.2 -5.7 -7.2 -9.4 -8.5 -2.4 -0.8 -8.9 2.9 -10.9 6.4 -2.2 3.6 -2.1 6.1 0.1 10.3 2.8 5.6 9.1 7.2 14.7 3.7z"/>
  <path d="M455.3 354 c-7.1 -2.3 -17.1 -10.7 -19.4 -16.2 -0.7 -1.8 -1.6 -3.5 -1.9 -3.8 -0.4 -0.3 -1.4 -2.5 -2.4 -5 -2.3 -5.8 -3 -16 -1.7 -23.9 1.3 -7.7 7.3 -21.1 9.6 -21.1 0.8 0 1.5 -0.8 1.5 -1.8 0 -2 2.9 -5.2 4.7 -5.2 0.6 0 1.3 -0.7 1.6 -1.5 0.9 -2.2 11.6 -7.2 18.5 -8.5 12.4 -2.5 31 0.5 36.8 5.8 1 1 2.7 2.1 3.7 2.5 1.1 0.4 1.7 1.7 1.7 3.7 l0 3 -6.7 -4.6 c-9.1 -6.1 -15.3 -7.7 -26.7 -7.2 -7.6 0.3 -10.2 0.9 -15.6 3.4 -9.8 4.7 -16.2 11 -21.2 21.2 -4.2 8.3 -4.3 8.8 -4.3 18.6 0 9.5 0.2 10.5 3.4 16.8 3.9 7.9 11.8 15.9 18.8 19.1 3.9 1.8 6.6 2.2 14.3 2.2 8.7 0 10 -0.3 15.6 -3.2 8 -4.2 14.9 -11.8 16.8 -18.6 3.5 -12.4 3.5 -12.4 1.7 -19.7 -2.2 -8.7 -0.8 -8.8 3.4 -0.3 3.7 7.6 5.9 10 9.6 10.8 1.6 0.4 2.9 1.3 2.9 2.1 0 2 -7.8 1.9 -10 -0.1 -1.6 -1.4 -1.8 -1.2 -2.3 3.7 -1.4 11.1 -9.2 21.4 -20.5 26.6 -7.9 3.6 -22.7 4.2 -31.9 1.2z"/>
  <path d="M473.2 318.9 c-8.9 -4.5 -11.8 -15 -6.1 -22.8 6.9 -9.6 18.8 -9.2 25.7 0.9 8.3 12.2 -6.3 28.6 -19.6 21.9z m13.9 -6.9 c5 -4.7 5.2 -8.4 0.9 -13.3 -4.3 -5 -8 -6.3 -11.8 -4.3 -3.7 1.9 -8.2 7.5 -8.2 10.2 0 4.9 9 12.7 13.2 11.6 1.1 -0.3 3.8 -2.2 5.9 -4.2z"/>
  <path d="M240.5 263.5 c-1.9 -2 -2.5 -3.6 -2.5 -6.8 0 -4.5 1.5 -10.7 2.7 -11.6 0.5 -0.3 1.3 -1.5 1.9 -2.6 0.6 -1.1 2.8 -2.9 5 -4 3.3 -1.7 6.3 -2 20.2 -2.3 16.7 -0.4 22.2 0.5 22.2 3.4 0 0.8 0.7 1.4 1.5 1.4 0.9 0 1.5 0.9 1.5 2.5 0 1.4 0.5 2.5 1.1 2.5 0.8 0 1 1.9 0.7 5.7 -0.4 4.4 -1 6.1 -2.9 7.6 -2.5 2 -1.5 2 -22.2 0.1 -6.3 -0.6 -10.7 0.1 -10.7 1.6 0 0.5 -0.8 1.9 -1.7 3 -1.4 1.6 -3 2 -8 2 -5.3 0 -6.6 -0.4 -8.8 -2.5z m11.8 -1.6 c1.3 -0.6 3.1 -2.4 4.1 -4 1.7 -2.9 1.8 -2.9 11 -2.9 6.4 0 10.3 0.5 12.4 1.5 8.3 4.2 15.2 -5.9 8.8 -12.8 -3.3 -3.6 -5.4 -3.9 -22 -3.5 -12.8 0.3 -14.8 0.5 -17.3 2.4 -4.3 3.2 -7.3 8.2 -7.3 12.3 0 4.1 0.6 5.3 3.5 6.9 2.5 1.4 3.8 1.5 6.8 0.1z"/>
  <path d="M489.2 264.4 c-1.2 -0.8 -2.2 -2.1 -2.2 -2.8 0 -0.8 -1.6 -1.6 -3.7 -2 -6 -0.9 -17.3 -0.7 -17.3 0.4 0 0.6 -1.6 1 -3.5 1 -1.9 0 -3.5 -0.4 -3.5 -1 0 -0.5 -0.9 -1 -2 -1 -2.6 0 -5.2 -4.2 -4.8 -7.6 0.3 -2.9 2.8 -4.7 2.8 -2.1 0 2.4 4.7 7.4 7.6 8.1 1.7 0.5 3.5 0.1 5.2 -1 2.1 -1.4 4 -1.5 11.3 -0.9 8.3 0.6 9 0.8 12.3 4.1 3.9 3.9 7.6 4.4 10.6 1.4 3.2 -3.2 3.5 -6.5 0.9 -11.7 -2.6 -5.1 -8.2 -8.8 -15.1 -9.8 -2.6 -0.4 -3.8 -1.1 -3.8 -2.2 0 -1.3 0.9 -1.5 5.8 -1 7.1 0.6 12.2 3 12.2 5.7 0 1.3 0.7 2 1.8 2 2.6 0 4.2 4.1 4.2 10.5 0 6.3 -0.7 8.5 -2.6 8.5 -0.8 0 -1.4 0.7 -1.4 1.5 0 2.1 -11.7 2.1 -14.8 -0.1z"/>
  <path d="M192.1 226.3 c-6.2 -12.4 -11.8 -34.5 -13.3 -52.8 -1.2 -13.6 -0.6 -20.5 1.6 -20.5 1 0 1.4 3.6 1.9 14.8 0.5 12.4 1.2 16.8 4.3 28.7 2 7.7 4.4 17.4 5.3 21.5 1 4.1 2.1 8.5 2.5 9.8 1.1 3.5 -0.2 2.6 -2.3 -1.5z"/>
  <path d="M552 229.3 c0 -0.6 0.5 -2.4 1 -3.8 0.6 -1.5 2.1 -9.3 3.5 -17.3 1.4 -8 2.9 -14.8 3.5 -15.2 1.2 -0.7 4 -14.5 4 -19.6 0 -2.8 0.4 -3.4 2.1 -3.4 2.1 0 2.1 0.3 1.5 6.8 -1.1 10.4 -4.4 25.8 -7.8 35.7 -3.1 9.1 -7.7 19 -7.8 16.8z"/>
  <path d="M356.7 182.3 c-1.3 -1.2 -0.8 -7.3 0.6 -7.3 0.7 0 1.8 -0.9 2.5 -2 0.7 -1.1 1.8 -2 2.5 -2 0.7 0 1.8 -0.9 2.5 -2 0.7 -1.1 1.6 -2 2.2 -2 0.5 0 2 -1 3.4 -2.3 1.3 -1.2 3.7 -2.9 5.3 -3.7 1.5 -0.8 3.7 -2.3 4.7 -3.2 1.1 -1 2.6 -1.8 3.3 -1.8 0.7 0 1.3 -0.4 1.3 -1 0 -0.5 0.6 -1 1.4 -1 0.8 0 1.6 -0.7 2 -1.5 0.3 -0.8 1 -1.5 1.5 -1.5 0.6 0 2.2 -1.1 3.7 -2.5 1.5 -1.4 3 -2.5 3.5 -2.5 0.4 0 2.3 -1.4 4.1 -3 1.8 -1.6 3.8 -3 4.4 -3 0.7 0 1.4 -0.7 1.8 -1.5 0.3 -0.8 1.2 -1.5 2 -1.5 0.7 0 1.6 -0.7 2 -1.5 0.3 -0.8 1.5 -1.5 2.6 -1.5 1.1 0 2 -0.6 2 -1.3 0 -1.9 3.3 -4.7 5.3 -4.7 0.9 0 1.7 -0.7 1.7 -1.5 0 -2 -5.5 -2 -18 0 -21.8 3.5 -44.7 11.9 -61 22.3 -6.4 4 -18.7 15.7 -22.6 21.3 -2.3 3.4 -3.2 3.9 -6.5 3.9 -3.6 0 -3.9 -0.2 -3.9 -2.7 0 -6.7 3.5 -28.5 6 -38.1 1.6 -5.9 2.8 -10.8 2.6 -10.9 -0.1 -0.2 -4.3 2.4 -9.3 5.7 -17.1 11.2 -29.6 28.1 -32.6 44 -0.9 4.6 -1.6 6 -2.9 6 -2.7 0 -2.3 -6 1.1 -15.7 3.8 -10.9 7 -16.1 15.2 -24.8 7.2 -7.6 16.5 -14.4 27.7 -20.2 8.2 -4.3 8.5 -3.7 4.9 8 -5 16.2 -10 42.7 -8.4 44.3 0.3 0.3 1.4 -1 2.6 -2.9 3.5 -5.7 18.3 -19.1 26 -23.7 21.3 -12.4 46.4 -19.9 73.1 -22 13.3 -1 17.6 -0.4 15.7 2 -4.1 5.1 -27.6 23.2 -51.2 39.5 -8.8 6.1 -22.5 16.5 -22.5 17.1 0 0.1 3.9 -0.9 8.8 -2.3 29.6 -8.3 66.4 -16.3 82 -17.8 6.8 -0.7 7.2 -0.6 7.2 1.2 0 1.7 -0.9 2.1 -6.7 2.7 -3.8 0.3 -15.8 2.4 -26.8 4.6 -18.6 3.8 -27.3 5.9 -51.3 12.5 -9.3 2.5 -14.3 3.1 -15.5 1.8z"/>
  <path d="M496 182 c0 -0.6 1.8 -6.8 3.9 -13.8 4.3 -14.1 11.3 -43.6 13 -55.2 0.7 -4.1 1.4 -9 1.7 -10.7 0.8 -5 3.4 -4.3 3.4 0.8 0 5.6 -3.4 25.4 -7.1 40.7 -1.6 6.9 -2.7 13.2 -2.5 13.9 0.5 1.2 -10.9 25.3 -11.9 25.3 -0.3 0 -0.5 -0.5 -0.5 -1z"/>
  <path d="M245.3 173.5 c-9.5 -19 -21.7 -84.5 -15.8 -84.5 1.5 0 2.1 2.3 3 13.5 1.3 16.3 8.8 50.2 15.5 70 3.4 10.3 3.2 9.5 2.2 9.5 -0.4 0 -2.6 -3.8 -4.9 -8.5z"/>
  <path d="M563.6 146.8 c-2 -21.8 -12.5 -49.5 -25.3 -67 -5 -6.8 -17.1 -19.8 -18.5 -19.8 -0.4 0 -0.8 8.6 -0.8 19 0 18.5 -0.1 19 -2.1 19 -2 0 -2 -0.4 -1.7 -21.9 0.2 -12.1 0.6 -22.2 0.9 -22.5 3.8 -3.8 25 19.1 34.7 37.3 8.1 15.2 15.2 38.9 16.8 56 0.6 6.7 0.6 7.1 -1.3 7.1 -1.8 0 -2.1 -0.9 -2.7 -7.2z"/>
  <path d="M179.4 144.3 c0.8 -8.6 5.2 -26.9 8.2 -35.1 3.2 -8.5 9.7 -21.3 15 -29.4 7.7 -11.9 24.5 -28.1 27.4 -26.3 0.6 0.4 1 5.9 1 13.6 0 12.2 -0.1 12.9 -2 12.9 -1.9 0 -2 -0.7 -2 -10.2 l-0.1 -10.3 -8.7 9.1 c-12 12.5 -22.5 30.3 -28.1 47.5 -2.9 8.8 -6.1 22.4 -6.8 29.2 -0.5 4.8 -0.9 5.7 -2.6 5.7 -1.8 0 -1.9 -0.4 -1.3 -6.7z"/>
 </g>
 <g fill="#e3c9b6">
  <path d="M407.3 691.8 c4.1 -9.4 7.2 -18.7 8.3 -24.8 1.4 -8.1 1.9 -23 0.7 -23 -0.5 0.1 -2.6 2.4 -4.8 5.2 -6.8 8.7 -16.1 18.7 -22.4 24.1 -11.7 10.1 -15 12.7 -16.3 12.7 -2.9 -0.1 -10 -4 -9.5 -5.3 0.3 -0.7 -0.4 -1.9 -1.4 -2.5 -1.6 -1 -1.9 -0.9 -1.9 0.3 0 0.8 -0.3 1.5 -0.8 1.5 -1 0 -5.1 -2.7 -8 -5.4 -1.9 -1.7 -2 -2.1 -0.8 -2.6 1.2 -0.4 0.1 -1.7 -4 -5 -4.9 -3.9 -9.8 -9.3 -14.2 -15.6 -1.1 -1.6 -1.2 -0.4 -0.8 7.1 0.5 9.5 2.9 19.7 6.5 27.8 1.1 2.7 2.1 5.1 2.1 5.3 0 1.2 -7 0.1 -10.9 -1.8 -9.9 -4.8 -29 -27.6 -32.6 -39 -0.9 -2.9 -1.9 -6 -2.2 -6.8 -0.3 -0.9 -2.2 2.2 -4.8 7.5 -5.8 12 -9.1 15.5 -14.6 15.5 -4.7 0 -15.9 -9.1 -19.2 -15.5 l-1.5 -3 -0.7 4 c-0.3 2.2 -0.7 4.5 -0.8 5.2 -0.1 0.8 -1.3 0.6 -3.4 -0.8 l-3.3 -2.1 0 -23.9 c0 -19.7 0.2 -23.9 1.4 -23.9 1.7 0 2.6 3.1 2.6 9.6 0 7.2 3.4 17.5 7 21.4 2.8 3 3.4 3.2 7.6 2.6 12.6 -1.7 25.4 -18.8 28.9 -38.6 2.3 -13.2 2.3 -13.3 -6 -6.5 -3.1 2.5 -7 5.2 -8.7 6.1 -3 1.6 -3.2 1.5 -5 -0.7 -3.6 -4.6 -10.6 -19.9 -12.4 -27.2 l-0.6 -2.7 -1.9 2.1 c-1.9 2.2 -1.9 2.2 -1.9 0.1 0 -1.1 -0.3 -2.9 -0.7 -3.9 -0.6 -1.3 -1 -0.5 -1.8 3.1 -1 4.6 -1.2 4.8 -2.8 3.2 -1.6 -1.6 -1.7 -1.2 -1.7 8.6 0 11.6 -0.6 14.8 -2.6 14.8 -1.2 0 -1.4 -6.2 -1.4 -37 0 -20.3 0.4 -37 0.9 -37 0.4 0 3 3.7 5.6 8.3 11.8 19.9 27.3 37.3 41.8 46.4 4.9 3.1 9.2 5.2 9.6 4.7 0.5 -0.5 1.6 -3.4 2.5 -6.4 1 -3 3 -7.8 4.5 -10.8 l2.7 -5.4 1.9 8.8 c5.6 27.7 17.5 47.7 34.8 58.9 l2.8 1.8 -1.2 -2.9 c-1.6 -4 -1.3 -21.7 0.4 -28.4 l1.5 -5.5 1.8 3.4 c3 5.3 12.8 17.5 15.7 19.4 l2.7 1.7 5.7 -5.7 c3.2 -3.2 7.7 -8.6 10 -12.1 2.3 -3.4 4.4 -5.9 4.6 -5.5 0.3 0.5 1.1 4.6 1.7 9.2 1.2 7.8 0.9 18.3 -0.7 24 -0.6 2.4 -0.5 2.4 4.2 -1 7 -5.1 15 -14.1 19.5 -22.2 4.4 -8 10.2 -24.6 12.1 -35 0.7 -3.7 1.5 -6.7 1.9 -6.7 0.4 0 2.8 4.7 5.5 10.5 2.6 5.8 5.1 10.8 5.5 11 0.7 0.5 10.7 -6.3 16.4 -11.2 2.2 -1.8 4.3 -3.3 4.8 -3.3 0.4 0 0.8 2.1 0.8 4.8 0 5.5 3.8 14.2 9.4 21.5 2 2.6 3.6 4.9 3.6 5.2 0 0.3 -1.5 0.5 -3.3 0.5 -3.5 0 -15.3 -6.3 -19.9 -10.8 l-2.8 -2.6 0 4.3 c0 10.6 7.6 29.1 15.5 37.9 5.3 5.9 13.2 10.1 19.3 10.4 3.8 0.1 4.2 0.3 3.6 2.2 -0.3 1.2 -1.2 3.1 -2 4.3 -0.8 1.2 -1.4 2.8 -1.4 3.6 0 2.4 -11.3 13.1 -15.4 14.6 -3.9 1.3 -4 1.3 -6.3 -1.5 -3 -3.7 -11.3 -19.2 -11.3 -21 0 -2.7 -1.9 -1.3 -2.5 1.9 -2.1 10 -18.5 32.2 -30 40.6 -6.4 4.7 -16.5 7.9 -15.2 4.9z"/>
  <path d="M284.1 491.4 c-7.5 -3.8 -16 -12.1 -22.8 -22.2 -3.2 -4.8 -5.8 -8.8 -5.8 -8.9 -0.1 -0.1 -3.4 0.8 -7.5 2.1 -10.6 3.3 -15 4 -15 2.4 0 -1.3 3.6 -12.5 5.5 -17.3 1 -2.5 1.6 -3 -11 9.5 l-10.6 10.5 0.2 -5.1 c0.1 -2.8 -0.1 -5.6 -0.5 -6.2 -2.3 -3.8 -2.4 -48.3 0 -59.1 0.7 -3.2 0.6 -3.3 -1.5 -2.2 -1.2 0.7 -2.6 0.9 -3.1 0.6 -0.5 -0.3 -1.1 -0.1 -1.5 0.5 -1.1 1.7 -2.5 1.1 -3.5 -1.5 -0.5 -1.4 -1.7 -2.5 -2.7 -2.5 -2.3 0 -11.1 4.1 -16 7.4 -4.3 2.9 -5.3 3.2 -5.3 1.3 0 -2.3 3.6 -5.7 5.9 -5.7 1.1 0 2.1 -0.6 2.1 -1.3 0 -0.8 1.7 -2.2 3.8 -3.1 l3.9 -1.7 1 -9.2 c1.7 -13.8 9.8 -37.7 18 -52.7 5.1 -9.2 5.2 -9.4 7.4 -7.4 1.1 1 2.8 1.5 4.3 1.2 2.3 -0.5 2.4 -0.2 2.8 5.6 0.8 12.9 10.6 26.2 24.1 33 9 4.5 16 5.9 26 5 l7.7 -0.7 0 3.2 c0 1.8 -1.4 6.2 -3.1 9.8 -2.6 5.6 -7.6 22.7 -9.2 31.3 -0.2 1.4 -0.5 0.4 -0.6 -2.5 -0.2 -4.5 -0.3 -4.7 -1.3 -2.5 -1.8 4.3 -0.3 43.9 2.1 54.1 2.6 11.2 6.5 23 10.2 30.2 1.6 3.2 2.9 6 2.9 6.2 0 1 -1.7 0.4 -6.9 -2.1z"/>
  <path d="M457 493.5 c0 -0.3 0.8 -2.2 1.9 -4.3 3.3 -6.5 7 -18 9.6 -29.4 3.8 -16.8 5.9 -44.8 3.4 -44.8 -0.8 0 -0.9 -1.1 -0.5 -3.2 0.3 -1.7 0.3 -5.4 -0.1 -8.2 -0.5 -4.2 -0.8 -4.6 -1.3 -2.6 -0.7 2.5 -0.7 2.5 -2.3 -1 -0.8 -1.9 -2.3 -6.6 -3.1 -10.5 -0.9 -3.8 -3 -9.9 -4.6 -13.4 -1.7 -3.5 -3 -7.7 -3 -9.3 l0 -3.1 8.8 0.7 c5.8 0.5 10.5 0.3 13.8 -0.5 18.2 -4.4 32.2 -19.5 34 -36.7 l0.7 -6.3 3.1 0.3 c2.9 0.3 3.5 1.1 8.6 11.3 10.2 20.4 17 41.7 17 53.6 l0 4.1 -6.5 -0.4 c-4.2 -0.3 -6.4 0 -6.3 0.7 0.2 0.5 -0.8 2.1 -2 3.3 -2.6 2.6 -2.6 0.4 -0.1 25.1 1.4 13.4 0.7 28.6 -1.7 35.6 -0.9 2.8 -2 5.3 -2.3 5.8 -0.4 0.4 -4.3 -2.6 -8.6 -6.5 -4.3 -4 -7.5 -6.4 -7.1 -5.3 2.2 5.3 3.6 9.8 4.2 13.6 0.7 3.9 0.6 4.2 -1.2 3.5 -1 -0.4 -4.6 -1.2 -7.8 -1.7 -3.2 -0.6 -6.7 -1.4 -7.7 -1.9 -3.1 -1.7 -4.6 -1.1 -7.5 3.3 -6.8 10 -15.2 19 -22.2 23.8 -6.9 4.6 -9.2 5.7 -9.2 4.4z"/>
  <path d="M305.2 340.4 c0.2 -0.5 2.2 -4.5 4.3 -8.9 3.9 -7.8 4 -8.2 3.9 -18 -0.2 -11.9 -2.4 -19.2 -8.3 -27 -13.6 -18 -38 -22.5 -58.1 -10.7 -10.8 6.4 -23.4 23.9 -24.7 34.5 -0.7 5.1 -1.8 6.7 -4.8 6.7 -1.5 0 -2.2 -0.6 -2.1 -1.7 0.1 -1.2 -1.3 -2.1 -4.9 -3 -6.2 -1.7 -24 -7.2 -27.2 -8.4 l-2.3 -0.9 2.4 -4.9 c2.1 -4.1 3.2 -5.1 6.8 -6.3 3.5 -1.2 5.1 -2.6 8.7 -7.9 21.4 -31.2 44.9 -56.9 71.8 -78.4 l10.6 -8.5 -0.2 -8.3 c-0.4 -14.4 4.3 -29.7 12.7 -41.9 3.8 -5.5 14 -15.9 19.3 -19.8 3.6 -2.6 9.9 -4.1 9.9 -2.4 0 0.3 -1.3 5.5 -3 11.7 -2.8 10.9 -6.4 33.7 -5.4 34.7 0.3 0.3 1.2 -0.3 1.9 -1.3 0.7 -1 1.5 -1.7 1.7 -1.6 0.1 0.2 3.7 -2.2 7.8 -5.2 14.7 -10.7 34.8 -20.9 53.4 -26.8 13.6 -4.4 35.9 -9.1 42.5 -9.1 l5.6 0.1 -4 3.5 c-5.5 4.9 -32.3 24.9 -42 31.4 -4.4 2.9 -11.1 7.8 -15 10.8 -3.8 3.1 -7.2 5.7 -7.4 5.9 -0.2 0.2 -0.2 0.5 0.1 0.8 0.3 0.3 5.7 -0.9 11.9 -2.6 22.5 -6.2 25.7 -7 47.4 -11.4 29.3 -5.9 46.5 -8 46.5 -5.5 0 1.4 -10.1 7.8 -23.1 14.8 -12.8 6.8 -28 13 -40.7 16.7 -4.7 1.4 -8.7 2.7 -8.9 2.9 -0.3 0.2 2.8 1.4 6.9 2.6 4 1.3 8.1 2.5 9.1 2.9 1.3 0.4 -0.6 1.6 -6.5 3.9 -20.1 7.8 -35 10.2 -60.3 9.8 -14.6 -0.3 -18.4 -0.7 -27 -3 -5.5 -1.5 -13.5 -4.4 -17.7 -6.5 -6.3 -3.1 -7.8 -3.5 -7.8 -2.2 0 2.9 6.1 16.4 10.5 23.2 4.9 7.7 15.8 19.4 19.8 21.6 1.6 0.8 2.6 1.7 2.3 2 -0.2 0.3 -3.1 -1.1 -6.2 -3.1 -3.2 -1.9 -6 -3.4 -6.2 -3.1 -0.6 0.6 2.3 4.5 7.4 9.7 8.5 8.7 27.1 18 41.9 20.8 9.8 1.9 29.1 1.7 39.6 -0.3 16.7 -3.3 40.3 -13 50.7 -20.8 2.9 -2.3 5.4 -3.9 5.6 -3.7 0.1 0.1 0.6 1.6 1.1 3.2 0.6 1.7 2.5 3.8 4.4 5 2.9 1.7 3.8 1.8 6.8 0.7 2 -0.8 7 -1.2 12.1 -1 8.4 0.2 8.8 0.4 11.8 3.6 7.9 8.3 18.3 -0.3 12.9 -10.6 -2 -3.9 -6.9 -7.8 -11.3 -9.1 -2 -0.5 -7.9 -1 -13.1 -1 l-9.4 0 4.4 -4.7 c2.5 -2.7 5.7 -6.5 7.3 -8.5 3.3 -4.5 2.5 -4.9 15.6 7.2 8.8 8.2 22.7 24 30.2 34.5 5.7 8 16 25.6 15.4 26.3 -0.4 0.3 -4.1 1.6 -8.4 2.9 -13.6 4.1 -12.3 4.2 -16.5 -2.5 -4.7 -7.5 -14.9 -17.2 -22 -20.7 -21.7 -10.5 -47.9 -1.1 -58.4 21 -4.3 9 -5.9 18.6 -4.4 25.7 1.2 5.3 6.1 16 8.9 19.1 1.4 1.6 1.3 1.7 -1.5 1.7 -1.6 0 -5.6 -1.1 -8.8 -2.4 -5 -2 -6 -2.9 -7.3 -6.2 -8.6 -22.2 -38.7 -36.1 -64.9 -29.9 -15.3 3.6 -29.1 13.9 -36 27 -3.6 6.8 -8.4 10.4 -14.6 11.3 -2.2 0.3 -3.8 0.1 -3.5 -0.4z m-49.6 -80.9 l2.6 -3.5 8.9 0 c4.9 0 10.9 0.6 13.4 1.2 3.9 1 5 1 7.2 -0.2 5.7 -3.2 4.7 -12 -1.9 -16 -2.9 -1.7 -5 -2 -15.8 -2 -15.8 0.1 -21.2 1.7 -25.2 7.5 -1.5 2.2 -3 5.7 -3.4 7.7 -0.5 3.1 -0.2 4.1 2 6.2 3.9 4 8.8 3.6 12.2 -0.9z"/>
  <path d="M559 174.9 c0 -6.9 -0.4 -11.8 -0.9 -11.5 -0.5 0.3 -0.7 1.6 -0.4 2.9 l0.5 2.2 -1.6 -2.2 c-1.1 -1.5 -2.3 -1.9 -3.7 -1.6 -1.5 0.4 -2 0.3 -1.5 -0.5 0.4 -0.8 0 -1.2 -1.1 -1.2 -2.5 -0.1 -6.9 -9.8 -8.3 -18.6 -1.5 -8.8 -3.2 -11.6 -6.8 -11.2 -1.5 0.2 -3.1 1.2 -3.7 2.3 -2.2 4.5 -5.3 7.4 -8.6 8 -5.6 1.1 -8.3 4.5 -16.4 20.4 -4.3 8.3 -8.2 15.1 -8.7 15.1 -0.6 0 -0.8 -0.6 -0.6 -1.2 0.3 -0.7 1.8 -5 3.3 -9.5 1.5 -4.6 3.2 -8.3 3.6 -8.3 0.5 0 0.9 -0.5 0.9 -1.2 0 -1 3.4 -10.2 7.5 -20.3 3.4 -8.3 8.2 -27.6 10.6 -42.5 1.4 -9.1 2.9 -11 8.3 -11 4 0 4.8 0.5 7.9 4.1 7.6 8.8 18.1 34.8 21.1 52.1 0.8 4.7 1.8 17 2.2 27.2 0.7 18.6 0.7 18.6 -1.4 18.6 -2.1 0 -2.2 -0.4 -2.2 -12.1z"/>
  <path d="M184 175.8 c0 -13.2 1.7 -31.9 3.5 -39.1 4.9 -19.3 13.6 -39.5 20.5 -47.9 2.9 -3.5 3.5 -3.8 8.6 -3.8 6.2 0 5.5 -1.2 7.9 14.5 1.7 11 4.9 23.3 9.5 36.9 1.6 5 3 9.8 3 10.8 0 1 0.5 1.8 1 1.8 0.6 0 1 1.6 1 3.5 0 2.3 0.5 3.5 1.4 3.5 1.7 0 2.6 2.2 2.6 6.2 0 5.2 -2.3 2.6 -6.9 -8.1 -3.1 -7.1 -4.7 -9.9 -5.5 -9.1 -0.5 0.5 -3.6 1 -6.7 1 l-5.7 0 -0.7 -4.2 c-1.3 -8 -4.6 -10.7 -8.3 -7 -2 2 -5.6 17.6 -6.8 29.1 -0.8 7.3 -2.8 10 -10.1 13.3 -3.7 1.6 -4.3 2.3 -4.3 4.8 0 2.3 -0.5 3 -2 3 -1.9 0 -2 -0.7 -2 -9.2z"/>
 </g>
 <g fill="#fdfdfd">
  <path d="M366 683.1 c-6.5 -2.7 -14.9 -8.1 -20.4 -13 -4.9 -4.5 -14.6 -19.9 -14.6 -23.3 0 -0.7 4.4 3.2 9.8 8.7 6.5 6.7 13.3 12.5 20.7 17.4 14 9.4 14.8 10 13.4 11.8 -1.4 1.6 -1.1 1.7 -8.9 -1.6z"/>
  <path d="M242.7 651.2 l-4.7 -4.8 0.2 -69.4 0.3 -69.5 3.1 6 c1.7 3.3 4.1 7.6 5.2 9.5 2.2 3.5 2.2 3.7 2.2 68.3 0 35.6 -0.4 64.7 -0.8 64.7 -0.4 0 -2.9 -2.2 -5.5 -4.8z"/>
  <path d="M267.7 603 c-1.5 -1.2 -4.3 -5.5 -6.4 -9.7 -3.6 -7.3 -3.8 -8.3 -4.2 -19.1 -0.2 -6.9 0.2 -13.8 1 -17.5 l1.2 -6 2.8 11 c3.7 15.4 9.2 28.9 14.5 35.9 1.3 1.7 2.4 3.3 2.4 3.6 0 0.5 -7.4 3.8 -8.4 3.8 -0.2 0 -1.5 -0.9 -2.9 -2z"/>
  <path d="M356.5 487.4 c-18.9 -4.4 -31.8 -10.7 -47.4 -23.3 -9.7 -7.8 -21.9 -24.6 -26.4 -36 -2.6 -6.9 -5.7 -19.4 -5.8 -23.8 0 -3 -0.2 -3.4 -0.9 -1.8 -1.6 3.6 -1 0.7 1.9 -10.7 1.6 -6.2 3.9 -13.5 5.2 -16.3 1.3 -2.7 2.6 -5.7 3 -6.6 0.6 -1.4 -0.2 -1.5 -6.4 -1.1 -15.1 0.9 -29.2 -4.4 -39.2 -14.9 -7.3 -7.6 -10.8 -15.2 -11.3 -24.4 l-0.4 -7 3.5 -1.7 c2.7 -1.3 3.8 -2.7 5.1 -6.5 0.9 -2.6 2.3 -5.9 3.1 -7.3 l1.5 -2.5 -0.7 3 c-0.5 1.7 -0.8 6.4 -0.7 10.6 0.2 13.9 7.9 26.1 20.2 32.1 6.1 3 7.4 3.3 16.2 3.3 8.8 -0.1 10 -0.3 16 -3.4 3.6 -1.9 8.4 -5.3 10.8 -7.7 2.4 -2.4 4.7 -4.4 5.3 -4.4 2.9 0 8.3 -5.1 11.2 -10.5 6.9 -13.1 20.7 -23.4 36 -27 8 -1.9 24.4 -1.9 32.4 0 18.5 4.4 32.9 15.6 38.5 29.9 1.3 3.3 2.3 4.2 7.2 6.2 3.4 1.4 8.1 4.5 11.7 7.8 4.8 4.5 7.3 6 13 7.7 12.8 3.9 25.4 1 35.3 -8.1 6.8 -6.3 9.9 -13.4 10.4 -24.1 0.3 -5 0 -10.2 -0.7 -12.1 -1 -3.1 -1 -3.2 0.5 -1.3 0.9 1.1 2.5 4 3.6 6.5 2.2 5.2 5.5 9 7.6 9 2.7 0 0.9 13.9 -2.7 21.6 -7.8 16.7 -25 26.4 -44.6 25.1 l-8.3 -0.5 2.9 6.2 c1.6 3.3 3.6 9.3 4.5 13.1 0.8 3.9 2.2 8.5 3 10.3 0.8 1.8 1.3 4.5 1.3 6 -0.1 2.4 -0.2 2.3 -0.8 -0.8 l-0.7 -3.5 -0.7 5 c-2.8 20.6 -5.4 27.4 -16.3 43.2 -12.8 18.4 -33.7 33.1 -54.5 38.4 -6.4 1.6 -12.2 2.2 -24.4 2.4 -8.8 0.2 -16.9 0.2 -18 -0.1z m2.9 -62.7 c3.3 -1.5 7.8 -4.3 10 -6.1 l4.1 -3.3 3.8 3.3 c8 6.9 18.2 9.9 31.1 9.2 10.1 -0.5 19.2 -4.6 26.6 -11.8 7.3 -7.1 10.5 -14.4 10.5 -24.2 0 -7.1 -0.2 -7.9 -2.9 -10.7 -1.7 -1.7 -3.8 -3.1 -4.8 -3.1 -2.8 0 -6.8 4.5 -6.8 7.6 0 8.1 -4.8 15.3 -13.1 19.9 -4.5 2.4 -6.6 2.9 -12.4 3 -8.1 0 -13.5 -2.3 -19.7 -8.3 l-3.8 -3.6 0 -10.2 0 -10.3 5 -4.7 c2.7 -2.6 5.4 -6.2 6 -8 1.3 -3.9 1.7 -4 4.2 -1.7 1 0.9 4.1 1.8 7.1 2.1 5.7 0.4 10.1 -1.7 14 -6.9 4.8 -6.6 2.5 -17.9 -4.8 -23.5 -3.6 -2.7 -4.5 -2.9 -14.7 -3.2 -12.3 -0.4 -14.4 0.4 -21.5 8.1 l-3.9 4.3 -4.2 -4.7 c-6.2 -7 -9.4 -8.1 -21.6 -7.7 -9.5 0.3 -10.5 0.5 -14.1 3.2 -7.3 5.6 -9.6 16.9 -4.8 23.5 5.1 6.8 12.2 8.7 19.2 5.2 l3.8 -2 2.1 4.4 c1.1 2.4 3.9 5.8 6.1 7.6 l4.1 3.2 0 11.9 0 11.8 -4.7 3.5 c-13.3 9.8 -30.3 7.7 -39.3 -4.7 -1.9 -2.6 -3 -5.4 -3.1 -7.7 -0.2 -5.6 -1.2 -8.2 -4.1 -10.4 -2.3 -1.7 -3.1 -1.8 -5.5 -0.8 -4.5 1.9 -6.7 6.4 -6.5 13.9 0.1 10.9 7.5 22.9 18 29.6 6.9 4.3 12.7 5.6 24.2 5.3 9 -0.2 11.3 -0.7 16.4 -3z"/>
  <path d="M208.4 469.5 c-1.4 -11.3 -0.9 -36 0.9 -46.1 1.9 -10.5 8.5 -31.4 10 -31.4 0.6 0 0.7 2.5 0.2 6.8 -1.3 11.6 -2 34.3 -1.4 43.3 0.3 4.7 1.4 10.9 2.3 13.7 l1.8 5.3 -2.6 3.2 c-1.4 1.8 -4.3 5.2 -6.5 7.7 l-3.9 4.4 -0.8 -6.9z"/>
  <path d="M183 401.6 c0 -5.3 7.5 -30.2 13.9 -46.3 5.8 -14.6 19.4 -41.4 22.5 -44.2 l2.6 -2.4 0 3.5 c0 2 0.9 4.6 2 6.1 l2 2.5 -3.6 6.3 c-7.6 12.9 -17.6 40 -19.3 52 -0.9 6.7 -1 6.6 7.4 7.1 l4 0.3 -7.2 2.8 c-4 1.6 -10.9 5.1 -15.4 7.8 -8.3 4.9 -8.9 5.3 -8.9 4.5z"/>
  <path d="M274.4 318.1 c-3.1 -1.4 -4.7 -3 -6.3 -6.3 -2.6 -5.5 -2.6 -8 -0.1 -13.3 2.7 -5.6 8.6 -8.9 14.5 -8.3 15.2 1.8 18.8 21.1 5.1 27.7 -5.2 2.6 -7.9 2.6 -13.2 0.2z"/>
  <path d="M472.5 317.6 c-8 -4.9 -10.3 -14.3 -5.1 -21 6.5 -8.6 17 -8.9 23.9 -0.6 10.2 12.1 -5.3 29.9 -18.8 21.6z"/>
  <path d="M184 297.4 c0 -1.6 7.4 -14.6 13.8 -24.3 18.7 -28.3 43.2 -54.3 69.5 -73.6 l6.8 -5 -0.6 -8.5 c-2.1 -27.3 15.2 -52.9 46.3 -68.4 5.9 -3 6 -2.8 4.1 4.9 -0.8 3.1 -1.7 4.5 -3.2 4.9 -3.1 0.7 -12.7 9.1 -19.3 16.7 -3 3.5 -7.5 10.5 -10 15.4 -5.7 11.5 -7.8 21.3 -7 32 l0.7 8 -10.5 8.3 c-26.8 21.2 -51.1 47.6 -72.7 79.1 -4.1 6 -4.8 6.6 -11.1 8.7 -3.8 1.2 -6.8 2.1 -6.8 1.8z"/>
  <path d="M553 226.8 c0 -0.4 0.4 -1.8 1 -3.3 0.5 -1.4 2 -9 3.2 -16.8 2.8 -18.1 3 -47.1 0.4 -61.7 -3.3 -18.6 -13.8 -44.5 -21.7 -53.3 -3.1 -3.5 -4 -4 -5.6 -3.1 -2.2 1.3 -3.3 5.1 -6.3 20.9 -2.4 12.4 -6.1 26.7 -8.4 32 -0.8 1.6 -2.1 5.3 -3.1 8 -2.1 5.9 -14.2 30.6 -15.7 32 -0.8 0.7 -0.9 0.5 -0.6 -0.5 7 -20.2 13 -43.4 16.8 -64.5 1.7 -9.3 2.3 -17.8 2.7 -37.3 0.6 -25.1 0.6 -25.2 2.7 -24.6 7.3 2.3 22.7 19.7 31.5 35.7 12.1 22.1 19.1 53 17.8 78.4 -0.8 13.9 -4.6 33.2 -9.2 45.8 -3.2 9 -5.4 13.9 -5.5 12.3z"/>
  <path d="M191.5 224.1 c-1.7 -2.9 -6 -16 -8.6 -26.5 -3.6 -14.7 -4.9 -38.3 -3 -53 4.5 -33.4 16.6 -60 36.7 -80.3 5.6 -5.7 10.9 -10.3 11.8 -10.3 1.3 0 1.6 1.1 1.6 5.8 0 15.3 1.3 38.9 2.6 49.2 1.8 14.1 7.2 37.6 13 57.2 2.4 8.1 4.4 15.1 4.4 15.5 -0.1 0.5 -3.2 -5.5 -7 -13.2 -10.3 -21.2 -18.4 -45.8 -21.5 -66 -2.2 -14.6 -2.2 -14.5 -4.9 -14.5 -6.7 0 -19.4 25.2 -26.1 51.7 -2.1 8.3 -3.8 30 -3.1 39.8 1.1 15.4 1.7 21.1 3.2 31 0.8 5.5 1.6 11 1.8 12.3 0.3 2.4 0.1 2.8 -0.9 1.3z"/>
  <path d="M313 177.6 c0 -2.8 5.7 -11.3 12.3 -18.2 14 -14.8 31.3 -24.3 58.2 -31.8 15.2 -4.3 49.5 -8.4 49.5 -5.9 0 1.7 -8.9 8.3 -11.2 8.3 -4.1 0 -29.1 5.8 -39.4 9.1 -24.2 7.7 -40.2 16.6 -67 37.2 -1.3 1 -2.4 1.6 -2.4 1.3z"/>
 </g>
</svg>