<svg width="193" height="54" viewBox="0 0 193 54" fill="none" xmlns="http://www.w3.org/2000/svg">
<path d="M80.32 22.5586C77.693 25.3736 74.774 29.1116 74.592 32.2736L73.722 32.2776L70.107 32.2736C68.173 30.1296 69.095 30.3516 64.133 25.9736C72.67 32.6966 71.92 30.2476 80.32 22.5586Z" fill="#F0F0F0"/>
<mask id="mask0_1079_6858" style="mask-type:luminance" maskUnits="userSpaceOnUse" x="17" y="0" width="176" height="33">
<path d="M48.025 32.277L67.466 32.278C61.562 26.467 54.89 22.413 48.311 19.907C47.558 24.308 47.595 28.485 48.025 32.277ZM18.725 32.277H42.338C42.632 27.828 43.283 23.004 44.409 18.6C39.805 16.659 35.026 15.587 30.812 15.587C21.822 15.587 15.405 20.471 18.725 32.277ZM73.017 0C61.264 0.012 52.116 4.173 49.463 14.976V14.983C64.271 23.261 68.245 27.833 71.181 27.519C73.933 27.224 75.824 23.533 85.116 18.085C82.267 21.169 78.128 27.147 78.41 32.277H134.755C139.796 23.487 152.575 25.451 165.296 27.414C175.933 29.055 186.525 30.694 192.543 26.063C185.869 28.419 177.378 26.42 168.075 24.419C158.909 22.448 148.962 20.477 139.193 22.674L129.669 24.223C112.493 27.066 106.228 24.675 107.111 22.286C108.05 19.752 117.031 17.218 129.574 20.922C135.683 22.728 143.19 20.466 151.447 18.204C159.762 15.923 168.847 13.646 178.055 15.524C172.07 11.424 164.483 13.258 156.143 15.091C150.952 16.231 145.476 17.373 139.917 17.082C133.583 16.522 127.325 15.267 121.741 13.126C107.506 7.674 96.911 11.113 88.563 14.552C80.571 17.849 74.644 21.14 69.558 16.617C65.444 13.076 68.846 1.795 105.832 7.257C94.628 2.914 82.957 0.007 73.108 0H73.017Z" fill="white"/>
</mask>
<g mask="url(#mask0_1079_6858)">
<path d="M192.543 0H15.404V32.278H192.543V0Z" fill="url(#paint0_linear_1079_6858)"/>
</g>
<mask id="mask1_1079_6858" style="mask-type:luminance" maskUnits="userSpaceOnUse" x="0" y="3" width="54" height="30">
<path d="M44.866 10.9364C21.94 -0.587626 0.275 10.0884 0 32.2774H5.321C5.06 13.2154 22.855 0.417376 46.45 13.7704C47.584 10.0004 50.456 5.66437 53.152 3.73438C48.824 3.99538 46.916 7.30437 44.866 10.9364Z" fill="white"/>
</mask>
<g mask="url(#mask1_1079_6858)">
<path d="M53.152 -0.587891H0V32.2771H53.152V-0.587891Z" fill="url(#paint1_linear_1079_6858)"/>
</g>
<path d="M0 35.045H5.412V42.71L18.261 35.045H26.008L10.819 43.832L27.727 54.002H19.247L5.412 45.442V54.002H0V35.045ZM30.962 35.045H50.778C52.548 35.045 53.848 35.322 54.68 35.874C55.514 36.428 55.928 37.377 55.928 38.723V43.205C55.928 44.515 55.514 45.449 54.68 46.004C53.848 46.559 52.549 46.833 50.778 46.833H47.764L58.218 54.002H50.52L41.314 46.832H36.267V54.002H30.962V35.045ZM36.267 38.317V43.56H48.493C49.289 43.56 49.893 43.466 50.312 43.27C50.729 43.076 50.935 42.662 50.935 42.033V39.84C50.935 39.213 50.729 38.802 50.312 38.609C49.894 38.412 49.289 38.317 48.492 38.317H36.268H36.267ZM105.056 54.002H99.7V38.45H89.087V35.045H115.719V38.45H105.056V54.002ZM125.031 35.045H119.679V54.002H125.031V35.045ZM129.154 35.045H132.849L151.522 47.638V35.045H156.362V54.002H152.659L133.995 41.229V54.002H129.154V35.045ZM165.281 38.539V50.373H179.744V46.337L185.155 47.281V49.519C185.155 50.415 185.058 51.148 184.865 51.713C184.695 52.2584 184.359 52.7375 183.905 53.084C183.455 53.428 182.858 53.664 182.109 53.8C181.365 53.933 180.454 54 179.379 54H165.65C164.537 54 163.618 53.933 162.893 53.8C162.163 53.664 161.573 53.428 161.12 53.084C160.667 52.7346 160.34 52.2479 160.187 51.697C160.01 51.111 159.926 50.387 159.926 49.519V39.527C159.926 38.632 160.018 37.898 160.211 37.331C160.401 36.762 160.711 36.307 161.149 35.963C161.583 35.619 162.163 35.381 162.893 35.247C163.618 35.111 164.537 35.043 165.65 35.043H179.379C180.454 35.043 181.365 35.111 182.109 35.247C182.858 35.381 183.455 35.612 183.905 35.939C184.356 36.268 184.677 36.726 184.865 37.308C185.058 37.893 185.155 38.632 185.155 39.527V41.361L179.744 42.031V38.539H165.281ZM65.796 38.448V42.44H80.1C81.178 42.44 82.086 42.507 82.832 42.642C83.579 42.773 84.166 43.006 84.601 43.336C85.033 43.666 85.343 44.118 85.54 44.701C85.726 45.281 85.823 46.024 85.823 46.922V49.519C85.823 50.415 85.726 51.148 85.537 51.713C85.343 52.286 85.033 52.739 84.597 53.084C84.163 53.428 83.575 53.664 82.826 53.8C82.079 53.932 81.168 54 80.09 54H65.756C64.646 54 63.724 53.935 62.995 53.802C62.265 53.669 61.677 53.432 61.22 53.095C60.7675 52.7542 60.4311 52.282 60.257 51.743C60.067 51.182 59.972 50.457 59.972 49.561V49.025L64.81 48.263V50.507H80.987V46.111H66.733C65.658 46.111 64.748 46.046 64.002 45.909C63.255 45.778 62.657 45.544 62.208 45.217C61.757 44.892 61.434 44.433 61.245 43.848C61.053 43.269 60.961 42.527 60.961 41.63V39.527C60.961 38.632 61.053 37.892 61.245 37.307C61.434 36.725 61.757 36.268 62.208 35.939C62.657 35.612 63.255 35.381 64.002 35.246C64.748 35.111 65.658 35.043 66.732 35.043H79.79C81.8 35.043 83.267 35.321 84.184 35.872C85.106 36.426 85.564 37.522 85.564 39.168V39.618L80.934 40.467V38.448H65.796Z" fill="white"/>
<defs>
<linearGradient id="paint0_linear_1079_6858" x1="33.926" y1="16.157" x2="176.81" y2="16.157" gradientUnits="userSpaceOnUse">
<stop stop-color="#E10717"/>
<stop offset="1" stop-color="#FDCA09"/>
</linearGradient>
<linearGradient id="paint1_linear_1079_6858" x1="-187.474" y1="15.8491" x2="241.087" y2="15.8491" gradientUnits="userSpaceOnUse">
<stop stop-color="#E10717"/>
<stop offset="1" stop-color="#FDCA09"/>
</linearGradient>
</defs>
</svg>
